<svg xmlns="http://www.w3.org/2000/svg" width="422" height="146.148" viewBox="0 0 422 146.148">
  <g id="Group_2535" data-name="Group 2535" transform="translate(2451 -2410)">
    <g id="Union_45" data-name="Union 45" transform="translate(-2451 2410)" fill="#fff">
      <path d="M 349.6852416992188 144.9998016357422 L 72.31443786621094 144.9998016357422 C 62.68786239624023 144.9998016357422 53.34965133666992 143.0967407226563 44.55923080444336 139.3435363769531 C 40.33396911621094 137.5394744873047 36.25859832763672 135.3064727783203 32.44633483886719 132.7065277099609 C 28.66980934143066 130.1310577392578 25.11849403381348 127.1731643676758 21.89096832275391 123.9150619506836 C 18.66328430175781 120.6568450927734 15.7329683303833 117.0715866088867 13.18133640289307 113.258903503418 C 10.60528373718262 109.4097442626953 8.392757415771484 105.2948455810547 6.605178356170654 101.0285339355469 C 2.885862588882446 92.15174102783203 1.000020623207092 82.72153472900391 1.000020623207092 72.99990081787109 C 1.000020623207092 63.27842712402344 2.885862588882446 53.84837341308594 6.605178356170654 44.97163772583008 C 8.392757415771484 40.705322265625 10.60528373718262 36.59042739868164 13.18133640289307 32.74126815795898 C 15.7329683303833 28.92858505249023 18.66328430175781 25.34332275390625 21.89096832275391 22.08505821228027 C 25.11849403381348 18.82695388793945 28.66980934143066 15.86905860900879 32.44633483886719 13.29347991943359 C 36.25859832763672 10.69353199005127 40.33396911621094 8.460479736328125 44.55923080444336 6.656426906585693 C 53.34965133666992 2.903111457824707 62.68786239624023 1.000006079673767 72.31443786621094 1.000006079673767 L 349.6852416992188 1.000006079673767 C 359.31201171875 1.000006079673767 368.650390625 2.903111457824707 377.4408569335938 6.656426906585693 C 381.6661376953125 8.460479736328125 385.7414855957031 10.69353199005127 389.5538024902344 13.29347991943359 C 393.3302917480469 15.86900615692139 396.881591796875 18.82695388793945 400.109130859375 22.08505821228027 C 403.3367614746094 25.34332275390625 406.2670593261719 28.92858505249023 408.8186645507813 32.74126815795898 C 411.3946533203125 36.59042739868164 413.607177734375 40.705322265625 415.3947143554688 44.97163772583008 C 419.1139221191406 53.84832000732422 420.999755859375 63.27842712402344 420.999755859375 72.99990081787109 C 420.999755859375 82.72158813476563 419.1139221191406 92.15179443359375 415.3947143554688 101.0285873413086 C 413.607177734375 105.2948989868164 411.3946533203125 109.4097442626953 408.8186645507813 113.258903503418 C 406.2670593261719 117.0715866088867 403.3367614746094 120.6568450927734 400.109130859375 123.9150619506836 C 396.881591796875 127.1731643676758 393.3302917480469 130.1310577392578 389.5538024902344 132.7065277099609 C 385.7414855957031 135.3064727783203 381.6661376953125 137.5394744873047 377.4408569335938 139.3434753417969 C 368.650390625 143.0967407226563 359.3120727539063 144.9998016357422 349.6852416992188 144.9998016357422 Z" stroke="none"/>
      <path d="M 349.6852416992188 143.9997863769531 C 359.1763000488281 143.9997863769531 368.3825378417969 142.1237335205078 377.0481872558594 138.4237823486328 C 381.2137451171875 136.6452331542969 385.231689453125 134.4437408447266 388.9903564453125 131.8804016113281 C 392.7142028808594 129.3407897949219 396.2160339355469 126.4240646362305 399.3986511230469 123.2112884521484 C 402.5815734863281 119.998176574707 405.4713134765625 116.4625701904297 407.9875793457031 112.7027359008789 C 410.5278625488281 108.9069595336914 412.7096252441406 104.8491821289063 414.4723510742188 100.6421203613281 C 418.1400756835938 91.88834381103516 419.999755859375 82.58818054199219 419.999755859375 72.99990081787109 C 419.999755859375 63.41184616088867 418.1400756835938 54.11178970336914 414.4723510742188 45.35806655883789 C 412.7096252441406 41.1510124206543 410.5278625488281 37.09323501586914 407.9875793457031 33.29745483398438 C 405.4713134765625 29.53756713867188 402.5815734863281 26.00195693969727 399.3986511230469 22.78884506225586 C 396.2160339355469 19.57601165771484 392.7141418457031 16.6592903137207 388.9903564453125 14.11967849731445 C 385.2316284179688 11.55628967285156 381.2137451171875 9.354678153991699 377.0481872558594 7.576123237609863 C 368.3825378417969 3.876067399978638 359.1763000488281 2.000011920928955 349.6852416992188 2.000011920928955 L 72.31447601318359 2.000011920928955 C 62.82363891601563 2.000011920928955 53.61753082275391 3.876067399978638 44.95191955566406 7.576123237609863 C 40.78636169433594 9.354678153991699 36.76847457885742 11.55628967285156 33.00980758666992 14.11967849731445 C 29.28597450256348 16.6592903137207 25.78408432006836 19.57601165771484 22.60141754150391 22.78884506225586 C 19.4184741973877 26.00195693969727 16.52869606018066 29.53762245178223 14.01241779327393 33.29745483398438 C 11.47208499908447 37.09328842163086 9.290251731872559 41.15106582641602 7.527529239654541 45.35806655883789 C 3.859751462936401 54.11178970336914 2.000029325485229 63.41184616088867 2.000029325485229 72.99990081787109 C 2.000029325485229 82.58818054199219 3.859751462936401 91.88834381103516 7.527529239654541 100.6421203613281 C 9.290251731872559 104.8491821289063 11.47208499908447 108.9069595336914 14.01241779327393 112.7027359008789 C 16.52869606018066 116.4625701904297 19.4184741973877 119.998176574707 22.60141754150391 123.2112884521484 C 25.78408432006836 126.4240646362305 29.28597450256348 129.3407897949219 33.00980758666992 131.8804016113281 C 36.76847457885742 134.4437408447266 40.78636169433594 136.6452331542969 44.95191955566406 138.4238433837891 C 53.61753082275391 142.1237945556641 62.82358551025391 143.9997863769531 72.31447601318359 143.9997863769531 L 349.6852416992188 143.9997863769531 M 349.6852416992188 145.9997863769531 L 72.31447601318359 145.9997863769531 C 32.37664031982422 145.9997863769531 2.933756513812114e-05 113.3171768188477 2.933756513812114e-05 72.99990081787109 C 2.933756513812114e-05 32.68351364135742 32.37664031982422 1.192898253066232e-05 72.31447601318359 1.192898253066232e-05 L 349.6852416992188 1.192898253066232e-05 C 389.6239624023438 1.192898253066232e-05 421.999755859375 32.68351364135742 421.999755859375 72.99990081787109 C 421.999755859375 113.3171768188477 389.6239624023438 145.9997863769531 349.6852416992188 145.9997863769531 Z" stroke="none" fill="#333"/>
    </g>
    <path id="Path_2067" data-name="Path 2067" d="M93.577,20.5a73.074,73.074,0,1,0,73.077,73.077A73.08,73.08,0,0,0,93.577,20.5Zm41.986,88.625a39.936,39.936,0,0,1-29.985,28.433,48.384,48.384,0,0,1-23.159-.25,45.058,45.058,0,0,1-16.449-8.294A45.235,45.235,0,0,1,49.744,84.63,45.337,45.337,0,0,1,79.32,50.792a45.775,45.775,0,0,1,30.493.266,43.816,43.816,0,0,1,14.565,9.024c-1.411,1.533-2.942,2.96-4.4,4.454q-4.165,4.157-8.328,8.32a24.526,24.526,0,0,0-9.76-5.732,26.592,26.592,0,0,0-26.81,6.968,28.07,28.07,0,0,0-6.569,10.672,27.4,27.4,0,0,0-.008,17.626,28.108,28.108,0,0,0,10.374,13.9,26.625,26.625,0,0,0,10.077,4.353,29.582,29.582,0,0,0,10.8.032,25.834,25.834,0,0,0,9.968-3.936,21.254,21.254,0,0,0,9.062-13.98q-12.329-.008-24.665,0-.016-8.833-.005-17.666,21.3,0,42.6,0A53.169,53.169,0,0,1,135.563,109.126Z" transform="translate(-2471.5 2389.499)" fill="#333"/>
    <text id="Login_With_Google" data-name="Login With
Google" transform="translate(-2181 2471)" fill="#1372e4" font-size="41" font-family="Helvetica"><tspan x="-96.854" y="0">Login With</tspan><tspan x="-66.104" y="55">Google</tspan></text>
  </g>
</svg>
