<svg xmlns="http://www.w3.org/2000/svg" width="352.633" height="352.581" viewBox="0 0 352.633 352.581">
  <g id="Group_2456" data-name="Group 2456" transform="translate(-448.578 -619.411)">
    <g id="Layer_9" data-name="Layer 9" transform="translate(448.578 619.411)">
      <g id="Group_2006" data-name="Group 2006" transform="translate(0 0)">
        <path id="Path_1872" data-name="Path 1872" d="M912.654,232.614l-111.859-.2-.141,79.662,122.409.215-.016,9.656-35.323-.075-.14,79.661,24.775.057a59.583,59.583,0,0,0,59.687-59.478l.086-49.814A59.583,59.583,0,0,0,912.654,232.614Z" transform="translate(-619.499 -140.627)" fill="#fff"/>
        <path id="Path_1873" data-name="Path 1873" d="M898.62,303.6l-.138,79.661-.063,32.2a59.568,59.568,0,0,1-59.683,59.469l-49.814-.075a59.606,59.606,0,0,1-59.482-59.7l.063-24.9,79.662.138-.063,30.49-.013,4.954,9.656.025.013-4.954.063-37.794.138-79.662Z" transform="translate(-637.822 -122.349)" fill="#fff"/>
        <path id="Path_1874" data-name="Path 1874" d="M920.624,239.339V226.67A40.02,40.02,0,0,0,880.6,186.651H867.387a62.3,62.3,0,0,1,3.207,19.748v29.8h30.483A62.3,62.3,0,0,1,920.624,239.339Z" transform="translate(-602.33 -152.403)" fill="#fff"/>
        <path id="Path_1875" data-name="Path 1875" d="M870.7,373.244V403.4a62.275,62.275,0,0,1-3.736,21.307h13.746a40.019,40.019,0,0,0,40.019-40.019V370.1a62.336,62.336,0,0,1-19.547,3.14Z" transform="translate(-602.438 -105.202)" fill="#fff"/>
        <path id="Path_1876" data-name="Path 1876" d="M684.41,370.1v14.58A40.019,40.019,0,0,0,724.43,424.7h12.732a62.279,62.279,0,0,1-3.735-21.307V373.244h-29.47A62.333,62.333,0,0,1,684.41,370.1Z" transform="translate(-649.407 -105.202)" fill="#fff"/>
        <path id="Path_1877" data-name="Path 1877" d="M733.427,236.2V206.4a62.329,62.329,0,0,1,3.207-19.748h-12.2A40.02,40.02,0,0,0,684.41,226.67v12.668a62.3,62.3,0,0,1,19.547-3.139Z" transform="translate(-649.407 -152.403)" fill="#fff"/>
        <path id="Path_1878" data-name="Path 1878" d="M716.354,232.251a59.579,59.579,0,0,0-59.7,59.47l-.088,49.814a59.6,59.6,0,0,0,59.482,59.7l32.2.05,79.662.138.138-79.662-79.662-.138-42.747-.075.012-9.656,34.935.064V232.3Z" transform="translate(-656.57 -140.67)" fill="#fff"/>
        <path id="Path_1879" data-name="Path 1879" d="M898.549,218.994a59.583,59.583,0,0,0-59.582-59.583H789.153a59.583,59.583,0,0,0-59.583,59.583V330.854h79.661V208.445h9.656V243.56h79.662Z" transform="translate(-637.788 -159.411)" fill="#fff"/>
      </g>
    </g>
  </g>
</svg>
