<svg xmlns="http://www.w3.org/2000/svg" width="113.835" height="113.835" viewBox="0 0 113.835 113.835">
  <g id="Group_2499" data-name="Group 2499" transform="translate(-4.081)">
    <text id="Guest" transform="translate(50.355 79.736)" fill="#444" font-size="21" font-family="SegoeUI-Bold, Segoe UI" font-weight="700" opacity="0.95"><tspan x="-28.203" y="0">Guest</tspan></text>
    <g id="Group_273" data-name="Group 273">
      <path id="Path_2007" data-name="Path 2007" d="M56.917,0A56.917,56.917,0,1,1,0,56.917,56.917,56.917,0,0,1,56.917,0Z" transform="translate(4.081)" fill="#2b394a"/>
      <g id="Group_266" data-name="Group 266" transform="translate(28.181 23.38)">
        <path id="Path_82" data-name="Path 82" d="M1060.642,530.259s-.009,2.974.008,3.988c.028,1.657.289,1.922,1.916,1.931q4.083.021,8.165,0c1.519-.01,1.911-.429,1.927-1.991.012-1.251,0-2.5,0-3.843h27.019c.018.422.048.777.048,1.133q0,10.3,0,20.6,0,5.26-5.24,5.256-27.849,0-55.7,0c-3.519,0-5.325-1.8-5.33-5.337-.009-6.825.01-13.65-.019-20.475,0-.9.167-1.289,1.2-1.284,8.288.042,16.575.022,24.863.026Z" transform="translate(-1033.443 -497.095)" fill="#e5e8ee"/>
        <path id="Path_83" data-name="Path 83" d="M1048.537,499.167c0-1.281-.014-2.411,0-3.539a8.276,8.276,0,0,1,8.391-8.423q9.75-.07,19.5,0a8.027,8.027,0,0,1,8.176,7.678,19.625,19.625,0,0,1,.064,3.042c-.083,1.077.372,1.276,1.336,1.257,2.8-.056,5.607-.026,8.411-.018,3.575.01,5.3,1.734,5.309,5.311.009,3.9-.009,7.8.014,11.7,0,.688-.12,1.023-.926,1.02-8.491-.027-16.984-.018-25.475-.022-.157,0-.315-.041-.68-.09,0-1.234,0-2.475,0-3.715-.008-1.658-.368-2.04-1.971-2.045-2.762-.008-5.525-.013-8.288,0-1.427.008-1.712.3-1.747,1.724-.026,1.015-.031,2.032,0,3.047.022.738-.175,1.1-1.024,1.1q-12.555-.038-25.11,0c-.79,0-1.077-.245-1.071-1.045.027-4.022-.027-8.045.026-12.067.041-3.064,1.931-4.889,5-4.915C1041.766,499.146,1045.053,499.167,1048.537,499.167Zm4.323-.094h27.2a30.777,30.777,0,0,0-.03-3.941,3.568,3.568,0,0,0-3.938-3.459c-6.33-.045-12.661-.032-18.991-.005-1.561.007-3.055.592-3.515,2.124A32.868,32.868,0,0,0,1052.86,499.073Z" transform="translate(-1033.444 -487.17)" fill="#e5e8ee"/>
        <path id="Path_84" data-name="Path 84" d="M1072.769,531.342v-8.881h5.842v8.881Z" transform="translate(-1042.507 -495.304)" fill="#e5e8ee"/>
      </g>
    </g>
  </g>
</svg>
