<svg xmlns="http://www.w3.org/2000/svg" width="143" height="144" viewBox="0 0 143 144">
  <g id="Group_2726" data-name="Group 2726" transform="translate(-827 -1067)">
    <ellipse id="Ellipse_100" data-name="Ellipse 100" cx="71.5" cy="72" rx="71.5" ry="72" transform="translate(827 1067)" fill="#2b394a"/>
    <g id="Group_2660" data-name="Group 2660" transform="translate(11182.001 7132.703)">
      <path id="Path_224" data-name="Path 224" d="M-5781-3107.715s1.651-12.271,6.91-12.271h52.008s7.6,1.169,7.6,12.271v57.852l-14.609-11.687h-45s-8.724-5.259-6.387-12.272S-5781-3107.715-5781-3107.715Z" transform="translate(-4535.872 -2906.87)" fill="#2b394a"/>
      <g id="Group_66" data-name="Group 66" transform="translate(-10318 -6028)">
        <path id="Path_5" data-name="Path 5" d="M622.881,583.743l-2.586-2.3c-4.708-4.2-12.2-10.823-13.943-12.28h-42.8a9.066,9.066,0,0,1-7.062-3.748,14.018,14.018,0,0,1-2.743-8.527V520.408c0-6.764,4.4-12.267,9.806-12.267h49.52c5.408,0,9.806,5.5,9.806,12.267Zm-59.326-72.5c-3.695,0-6.7,4.112-6.7,9.164v36.479a10.927,10.927,0,0,0,2.1,6.636,5.931,5.931,0,0,0,4.6,2.536h43.326c.753,0,.8,0,12.9,10.765V520.408c0-5.052-3.008-9.164-6.7-9.164Z" transform="translate(-553.75 -508.141)" fill="#e5e8ee" stroke="#e5e8ee" stroke-width="1"/>
        <path id="Path_223" data-name="Path 223" d="M621.546,580.9l-1.251.538c-4.708-4.2-12.2-10.823-13.943-12.28h-42.8a9.066,9.066,0,0,1-7.062-3.748,14.018,14.018,0,0,1-2.743-8.527V520.408c0-6.764,4.4-12.267,9.806-12.267h49.52c5.408,0,9.806,5.5,9.806,12.267Zm-57.99-69.661c-3.695,0-6.7,4.112-6.7,9.164v36.479a10.927,10.927,0,0,0,2.1,6.636,5.931,5.931,0,0,0,4.6,2.536h43.326c.753,0,.8,0,12.9,10.765V520.408c0-5.052-3.008-9.164-6.7-9.164Z" transform="translate(-553.75 -508.141)" fill="#e5e8ee" stroke="#e5e8ee" stroke-width="1"/>
      </g>
      <rect id="Rectangle_806" data-name="Rectangle 806" width="44.003" height="5.077" transform="translate(-10305.589 -6013.333)" fill="#e5e8ee"/>
      <rect id="Rectangle_807" data-name="Rectangle 807" width="44.003" height="5.077" transform="translate(-10305.589 -6002.05)" fill="#e5e8ee"/>
      <rect id="Rectangle_808" data-name="Rectangle 808" width="23.694" height="5.077" transform="translate(-10305.589 -5990.767)" fill="#e5e8ee"/>
    </g>
  </g>
</svg>
