<svg xmlns="http://www.w3.org/2000/svg" width="97" height="97" viewBox="0 0 97 97">
  <g id="Group_1946" data-name="Group 1946" transform="translate(-3893 93)">
    <g id="Group_1945" data-name="Group 1945" transform="translate(2952 -126)">
      <path id="Path_179" data-name="Path 179" d="M20,0H77A20,20,0,0,1,97,20V77A20,20,0,0,1,77,97H20A20,20,0,0,1,0,77V20A20,20,0,0,1,20,0Z" transform="translate(941 33)" fill="#2b394a"/>
      <path id="Path_224" data-name="Path 224" d="M-5781-3109.11s1.463-10.876,6.125-10.876h46.1s6.733,1.036,6.733,10.876v51.275L-5735-3068.194h-39.88s-7.732-4.661-5.661-10.876a28.19,28.19,0,0,0,.8-7.313A227.136,227.136,0,0,0-5781-3109.11Z" transform="translate(6741 3171)" fill="#fff"/>
      <g id="Group_66" data-name="Group 66" transform="translate(959 50)">
        <path id="Path_5" data-name="Path 5" d="M615.022,575.148l-2.292-2.039c-4.173-3.718-10.81-9.593-12.358-10.884H562.441a8.035,8.035,0,0,1-6.26-3.322,12.425,12.425,0,0,1-2.431-7.558V519.014c0-6,3.9-10.873,8.691-10.873h43.89c4.793,0,8.691,4.877,8.691,10.873Zm-52.581-64.257c-3.275,0-5.941,3.645-5.941,8.122v32.332a9.684,9.684,0,0,0,1.859,5.882,5.257,5.257,0,0,0,4.081,2.248h38.4c.667,0,.708,0,11.43,9.541v-50c0-4.477-2.666-8.122-5.941-8.122Z" transform="translate(-553.75 -508.141)" fill="#fff"/>
        <path id="Path_223" data-name="Path 223" d="M615.022,575.148l-2.292-2.039c-4.173-3.718-10.81-9.593-12.358-10.884H562.441a8.035,8.035,0,0,1-6.26-3.322,12.425,12.425,0,0,1-2.431-7.558V519.014c0-6,3.9-10.873,8.691-10.873h43.89c4.793,0,8.691,4.877,8.691,10.873Zm-52.581-64.257c-3.275,0-5.941,3.645-5.941,8.122v32.332a9.684,9.684,0,0,0,1.859,5.882,5.257,5.257,0,0,0,4.081,2.248h38.4c.667,0,.708,0,11.43,9.541v-50c0-4.477-2.666-8.122-5.941-8.122Z" transform="translate(-553.75 -508.141)" fill="#fff"/>
      </g>
    </g>
    <rect id="Rectangle_806" data-name="Rectangle 806" width="39" height="4.5" transform="translate(3922 -63)" fill="#16202c"/>
    <rect id="Rectangle_807" data-name="Rectangle 807" width="39" height="4.5" transform="translate(3922 -53)" fill="#16202c"/>
    <rect id="Rectangle_808" data-name="Rectangle 808" width="21" height="4.5" transform="translate(3922 -43)" fill="#16202c"/>
  </g>
</svg>
