<svg id="Group_2590" data-name="Group 2590" xmlns="http://www.w3.org/2000/svg" width="66.902" height="71.18" viewBox="0 0 66.902 71.18">
  <g id="Group_2586" data-name="Group 2586" transform="translate(0 0)">
    <g id="Group_2583" data-name="Group 2583" transform="translate(11.677 19.02)">
      <g id="Path_1636" data-name="Path 1636">
        <g id="Group_2586-2" data-name="Group 2586">
          <path id="Path_2100" data-name="Path 2100" d="M707.275,1973.548a21.462,21.462,0,1,1-21.24,21.46A21.35,21.35,0,0,1,707.275,1973.548Z" transform="translate(-686.035 -1973.548)" fill="none"/>
        </g>
        <g id="Group_2587" data-name="Group 2587" transform="translate(0)">
          <path id="Path_2101" data-name="Path 2101" d="M707.275,1977.622a16.946,16.946,0,0,0-12.123,5.077,17.545,17.545,0,0,0,0,24.619,17.012,17.012,0,0,0,24.246,0,17.547,17.547,0,0,0,0-24.619,16.948,16.948,0,0,0-12.123-5.077Zm0-4.074a21.462,21.462,0,1,1-21.24,21.46A21.35,21.35,0,0,1,707.275,1973.548Z" transform="translate(-686.035 -1973.548)" fill="#5eb8f3"/>
        </g>
      </g>
      <g id="Group_653" data-name="Group 653" transform="translate(1.671 0.557)">
        <g id="Line_33" data-name="Line 33" transform="translate(0 18.656)">
          <rect id="Rectangle_988" data-name="Rectangle 988" width="39.495" height="4" fill="#5eb8f3"/>
        </g>
        <g id="Path_2096" data-name="Path 2096" transform="translate(17.79)">
          <rect id="Rectangle_989" data-name="Rectangle 989" width="4" height="41.491" fill="#5eb8f3"/>
        </g>
      </g>
    </g>
    <g id="Path_2095" data-name="Path 2095" transform="translate(0 0)">
      <path id="Path_2102" data-name="Path 2102" d="M733.251,2025.708H682.368a8.019,8.019,0,0,1-8.009-8.01v-29.723a7.951,7.951,0,0,1,2.347-5.663l25.441-25.442a8.018,8.018,0,0,1,11.327,0l25.441,25.442a7.952,7.952,0,0,1,2.346,5.663V2017.7A8.019,8.019,0,0,1,733.251,2025.708Zm-25.441-67.182a4,4,0,0,0-2.835,1.172l-25.442,25.442a3.98,3.98,0,0,0-1.175,2.835V2017.7a4.014,4.014,0,0,0,4.009,4.01h50.883a4.014,4.014,0,0,0,4.009-4.01v-29.723a3.98,3.98,0,0,0-1.174-2.835L710.645,1959.7A4,4,0,0,0,707.81,1958.526Z" transform="translate(-674.358 -1954.528)" fill="#5eb8f3"/>
    </g>
  </g>
</svg>
