<svg xmlns="http://www.w3.org/2000/svg" width="41.382" height="41.139" viewBox="0 0 41.382 41.139">
  <g id="Group_2575" data-name="Group 2575" transform="translate(-665.158 -966.829)">
    <path id="Path_2092" data-name="Path 2092" d="M665.169,1289.341c.244-1.041.5-2.08.731-3.123.469-2.076.928-4.155,1.378-6.171l8.311,8.3-1.53.374c-2.487.605-4.978,1.2-7.46,1.825A1.15,1.15,0,0,1,665.169,1289.341Z" transform="translate(0 -282.616)" fill="#5eb8f3"/>
    <path id="Path_2093" data-name="Path 2093" d="M719.657,1067.934l-8.324-8.311,21.2-21.2,8.311,8.311Z" transform="translate(-41.664 -64.6)" fill="#5eb8f3"/>
    <path id="Path_2094" data-name="Path 2094" d="M952.278,971.545c1.193-1.234,2.352-2.571,3.657-3.746a3.588,3.588,0,0,1,5.088.184q1.87,1.809,3.68,3.68a2.751,2.751,0,0,1,.127,3.955c-1.375,1.471-2.863,2.836-4.266,4.213Z" transform="translate(-259.068 0)" fill="#5eb8f3"/>
  </g>
</svg>
