<svg xmlns="http://www.w3.org/2000/svg" width="144" height="144" viewBox="0 0 144 144">
  <g id="Group_2592" data-name="Group 2592" transform="translate(-593 -1067)">
    <g id="Group_2225" data-name="Group 2225" transform="translate(4)">
      <g id="Group_1771" data-name="Group 1771" transform="translate(544.986 1053.403)">
        <circle id="Ellipse_101" data-name="Ellipse 101" cx="72" cy="72" r="72" transform="translate(44.014 13.597)" fill="#2b394a"/>
        <g id="Group_726" data-name="Group 726" transform="translate(73.185 55.599)">
          <g id="Group_436" data-name="Group 436" transform="translate(0 2.424)">
            <path id="Path_161" data-name="Path 161" d="M-446.48-1354.352c0,17.066.02,33.378-.017,49.689-.007,3.089-1.561,4.819-4.206,5.217a18.2,18.2,0,0,1-2.693.083q-35.369.006-70.739,0c-5.694,0-6.851-1.315-6.851-7.755q0-21.576,0-43.153v-4.088c3.8,3.659,7.13,6.829,10.427,10.038q14.252,13.868,28.489,27.756c2.539,2.469,4.179,2.417,6.832-.173q18.449-18,36.889-36.022C-447.919-1353.176-447.445-1353.532-446.48-1354.352Z" transform="translate(531.234 1356.484)" fill="none" stroke="#e5e8ee" stroke-linejoin="round" stroke-width="5"/>
            <line id="Line_35" data-name="Line 35" x2="84" transform="translate(0.328 2.074)" fill="none" stroke="#e5e8ee" stroke-width="5"/>
          </g>
          <text id="_" data-name="@" transform="translate(40.307 28)" fill="#e5e8ee" font-size="24" font-family="SegoeUI-Bold, Segoe UI" font-weight="700" letter-spacing="-0.229em" opacity="0.95"><tspan x="-11.449" y="0">@</tspan></text>
        </g>
      </g>
    </g>
  </g>
</svg>
