<svg xmlns="http://www.w3.org/2000/svg" width="357" height="311.153" viewBox="0 0 357 311.153">
  <g id="Group_2688" data-name="Group 2688" transform="translate(21661 -13460.847)">
    <path id="Rectangle_1037" data-name="Rectangle 1037" d="M40,0H317a40,40,0,0,1,40,40V278.409a29,29,0,0,1-29,29H29a29,29,0,0,1-29-29V40A40,40,0,0,1,40,0Z" transform="translate(-21661 13464.591)" fill="#2b394a"/>
    <g id="Group_2687" data-name="Group 2687" transform="translate(1773 146.847)">
      <path id="Path_1687" data-name="Path 1687" d="M289.1,1062.045s6.155,11.674,32.9,11.674v0c26.743,0,32.9-11.674,32.9-11.674,18.466-29.5,37.78-28.866,37.78-28.866l107.822,12.79V940.69a30.19,30.19,0,0,0-30.19-30.19H173.69a30.19,30.19,0,0,0-30.19,30.19v93.279l107.822-.79S270.636,1032.542,289.1,1062.045Z" transform="translate(-23577.5 12403.5)" fill="#6faaf1"/>
      <path id="Path_1688" data-name="Path 1688" d="M505.116,1057.844v29.706l.424-28.866v-34.859a20.325,20.325,0,0,0-20.325-20.325H202.825a20.325,20.325,0,0,0-20.325,20.325v34.207" transform="translate(-23599.945 12349.979)" fill="#b0d1f7"/>
      <path id="Path_1689" data-name="Path 1689" d="M505.116,1188.04v-73a19.535,19.535,0,0,0-19.535-19.535H201.611a19.54,19.54,0,0,0-19.111,15.478v75.788" transform="translate(-23599.945 12297.031)" fill="#d2e5fb"/>
      <g id="Rectangle_1033" data-name="Rectangle 1033" transform="matrix(0.891, -0.454, 0.454, 0.891, -23396.975, 13440.179)" fill="#fff9c7" stroke="#f8ec8d" stroke-width="7">
        <rect width="237" height="156" rx="22" stroke="none"/>
        <rect x="3.5" y="3.5" width="230" height="149" rx="18.5" fill="none"/>
      </g>
      <path id="Path_1690" data-name="Path 1690" d="M392.678,1199.211s-19.314-.637-37.78,28.866c0,0-6.155,11.673-32.9,11.673v0c-26.743,0-32.9-11.674-32.9-11.674-18.465-29.5-37.78-28.866-37.78-28.866L143.5,1199v109.678a30.19,30.19,0,0,0,30.19,30.19H470.31a30.19,30.19,0,0,0,30.19-30.19V1199Z" transform="translate(-23577.5 12237.467)" fill="#4290ed"/>
    </g>
  </g>
</svg>
