<svg id="Group_2721" data-name="Group 2721" xmlns="http://www.w3.org/2000/svg" width="44.986" height="62.763" viewBox="0 0 44.986 62.763">
  <g id="Group_1616" data-name="Group 1616" transform="translate(0 0)">
    <path id="Path_1731" data-name="Path 1731" d="M-703.464-58.356c-4.4.9-6.466,1.216-10.559,2.057-3.434-5.819-6.619-17.637-4.343-24.179a51.172,51.172,0,0,1,2.882-6.638,5.741,5.741,0,0,1,9.878-.62c3.308,4.765,5.325,9.971,4.556,15.848C-701.372-69.427-703.236-60.733-703.464-58.356Z" transform="translate(719.133 90.26)" fill="#1d2733"/>
    <path id="Path_1732" data-name="Path 1732" d="M-692.8,80.371l10.532-2.314c1.045,2.979,2.437,5.811,1.8,9.037-.509,2.587-2.762,4.21-6.01,4.521-2.186.209-3.808-.893-4.877-3.391a9.938,9.938,0,0,1-.689-2.272C-692.34,84.157-692.542,82.345-692.8,80.371Z" transform="translate(698.27 -43.81)" fill="#1d2733"/>
  </g>
  <g id="Group_1617" data-name="Group 1617" transform="matrix(0.985, 0.174, -0.174, 0.985, 27.017, 13.45)">
    <path id="Path_1733" data-name="Path 1733" d="M2.578,31.9c4.4.9,6.466,1.216,10.559,2.057,3.433-5.819,6.619-17.637,4.343-24.179A51.107,51.107,0,0,0,14.6,3.144a5.741,5.741,0,0,0-9.877-.62C1.411,7.289-.606,12.495.164,18.372.486,20.833,2.349,29.527,2.578,31.9Z" transform="translate(0 0)" fill="#1d2733"/>
    <path id="Path_1734" data-name="Path 1734" d="M12.494,2.314,1.962,0C.916,2.979-.475,5.811.16,9.037c.509,2.587,2.761,4.21,6.01,4.521,2.186.209,3.808-.893,4.877-3.39A9.948,9.948,0,0,0,11.736,7.9C12.03,6.1,12.232,4.288,12.494,2.314Z" transform="translate(0.166 34.257)" fill="#1d2733"/>
  </g>
</svg>
