<svg id="Group_2707" data-name="Group 2707" xmlns="http://www.w3.org/2000/svg" width="60.621" height="84.575" viewBox="0 0 60.621 84.575">
  <g id="Group_1616" data-name="Group 1616">
    <path id="Path_1731" data-name="Path 1731" d="M-698.019-47.268c-5.932,1.219-8.713,1.638-14.228,2.772-4.627-7.841-8.919-23.767-5.852-32.583a68.948,68.948,0,0,1,3.884-8.945c3.072-5.944,10.367-5.076,13.311-.836,4.458,6.421,7.176,13.436,6.139,21.355C-695.2-62.186-697.711-50.471-698.019-47.268Z" transform="translate(719.133 90.26)" fill="#e5e8ee"/>
    <path id="Path_1732" data-name="Path 1732" d="M-692.8,81.176l14.193-3.119c1.409,4.015,3.283,7.831,2.429,12.178-.686,3.486-3.721,5.673-8.1,6.092-2.945.282-5.132-1.2-6.572-4.569a13.385,13.385,0,0,1-.929-3.061C-692.179,86.276-692.451,83.835-692.8,81.176Z" transform="translate(700.169 -31.908)" fill="#e5e8ee"/>
  </g>
  <g id="Group_1617" data-name="Group 1617" transform="matrix(0.985, 0.174, -0.174, 0.985, 36.406, 18.125)">
    <path id="Path_1733" data-name="Path 1733" d="M3.474,42.992c5.932,1.219,8.713,1.638,14.228,2.772C22.329,37.923,26.621,22,23.554,13.182A68.869,68.869,0,0,0,19.67,4.237C16.6-1.707,9.3-.839,6.359,3.4,1.9,9.822-.817,16.837.22,24.757.655,28.074,3.166,39.789,3.474,42.992Z" transform="translate(0 0)" fill="#e5e8ee"/>
    <path id="Path_1734" data-name="Path 1734" d="M16.836,3.119,2.644,0C1.235,4.015-.64,7.831.215,12.178c.685,3.486,3.721,5.673,8.1,6.092,2.945.282,5.132-1.2,6.572-4.569a13.405,13.405,0,0,0,.929-3.062C16.211,8.22,16.483,5.778,16.836,3.119Z" transform="translate(0.224 46.163)" fill="#e5e8ee"/>
  </g>
</svg>
