<svg id="Group_1662" data-name="Group 1662" xmlns="http://www.w3.org/2000/svg" width="71.231" height="57.64" viewBox="0 0 71.231 57.64">
  <g id="Group_1641" data-name="Group 1641" transform="translate(1.731 1.731)">
    <rect id="Rectangle_743" data-name="Rectangle 743" width="67.769" height="54.178" rx="9" transform="translate(0 0)" fill="#1d2733"/>
  </g>
  <g id="Group_1642" data-name="Group 1642" transform="translate(6.901 13.656)">
    <path id="Path_1760" data-name="Path 1760" d="M386.242-316.106v10.72a4.957,4.957,0,0,1-4.957,4.957H333.647a4.944,4.944,0,0,1-4.944-4.944v-14.08l16-18.664,16.436,22.968c3.537-1.763,11.638-5.985,12.292-6.011S382.613-317.563,386.242-316.106Z" transform="translate(-328.703 338.116)" fill="#5eb8f3"/>
  </g>
  <g id="Group_1643" data-name="Group 1643" transform="translate(42.476 11.907)">
    <path id="Path_1761" data-name="Path 1761" d="M414.13-334.761a6.678,6.678,0,0,1-6.826,6.621,6.7,6.7,0,0,1-6.664-7.031,6.643,6.643,0,0,1,6.948-6.479A6.634,6.634,0,0,1,414.13-334.761Z" transform="translate(-400.637 341.652)" fill="#5eb8f3"/>
  </g>
  <g id="Group_1644" data-name="Group 1644" transform="translate(0)">
    <path id="Path_1762" data-name="Path 1762" d="M376.738-308.089H323.991a9.252,9.252,0,0,1-9.242-9.242v-39.156a9.252,9.252,0,0,1,9.242-9.242h52.748a9.252,9.252,0,0,1,9.242,9.242v39.156A9.252,9.252,0,0,1,376.738-308.089Zm-52.748-54.178a5.786,5.786,0,0,0-5.78,5.78v39.156a5.787,5.787,0,0,0,5.78,5.78h52.748a5.787,5.787,0,0,0,5.78-5.78v-39.156a5.786,5.786,0,0,0-5.78-5.78Z" transform="translate(-314.749 365.729)" fill="#5eb8f3"/>
  </g>
</svg>
