<svg xmlns="http://www.w3.org/2000/svg" width="144" height="144" viewBox="0 0 144 144">
  <g id="Group_2277" data-name="Group 2277" transform="translate(-95 -1355)">
    <g id="Group_2240" data-name="Group 2240" transform="translate(-11)">
      <g id="Group_1769" data-name="Group 1769" transform="translate(65 1341.403)">
        <circle id="Ellipse_102" data-name="Ellipse 102" cx="72" cy="72" r="72" transform="translate(41 13.597)" fill="#2b394a"/>
      </g>
      <g id="Group_2233" data-name="Group 2233" transform="translate(137 1383.681)">
        <path id="Path_55" data-name="Path 55" d="M184.962,611.5H174.055L160.53,636.368h81.148L228.153,611.5H217.246" transform="translate(-160.53 -565.12)" fill="#e5e8ee" stroke="#2b394a" stroke-width="1"/>
        <path id="Path_56" data-name="Path 56" d="M226.832,582.286c.106,6.212-2.5,11.924-6.829,16.947-2.239,2.6-4.558,5.125-6.809,7.712a49.224,49.224,0,0,0-7.92,12.389,2.175,2.175,0,0,1-1.535,1.2,2.321,2.321,0,0,1-1.709-1.174c-2.685-6.562-7.234-11.788-11.925-16.92-3.223-3.525-6.406-7.114-8.033-11.69-2.969-8.35-1.881-16.231,3.433-23.347a22.835,22.835,0,0,1,33.678-3.036A23.1,23.1,0,0,1,226.832,582.286Zm-23.249,11.531a12.272,12.272,0,0,0,.343-24.542c-6.46-.184-12.339,5.285-12.5,11.625A12.225,12.225,0,0,0,203.583,593.817Z" transform="translate(-163.069 -558.346)" fill="#2b394a" stroke="#2b394a" stroke-width="1"/>
        <path id="Path_57" data-name="Path 57" d="M222.2,585.018c.081,4.759-1.914,9.136-5.232,12.984-1.715,1.99-3.492,3.927-5.217,5.909a37.7,37.7,0,0,0-6.068,9.492,1.668,1.668,0,0,1-1.176.919,1.78,1.78,0,0,1-1.31-.9c-2.057-5.027-5.542-9.032-9.137-12.963-2.47-2.7-4.908-5.451-6.155-8.956a18.189,18.189,0,0,1,2.63-17.889,17.489,17.489,0,0,1,25.8-2.325A17.7,17.7,0,0,1,222.2,585.018Zm-17.813,8.835a9.4,9.4,0,1,0-9.311-9.9A9.414,9.414,0,0,0,204.388,593.852Z" transform="translate(-163.861 -559.406)" fill="#e5e8ee"/>
      </g>
    </g>
  </g>
</svg>
