<svg xmlns="http://www.w3.org/2000/svg" width="144" height="144" viewBox="0 0 144 144">
  <g id="Group_2223" data-name="Group 2223" transform="translate(-106 -1067)">
    <g id="Group_2217" data-name="Group 2217">
      <circle id="Ellipse_102" data-name="Ellipse 102" cx="72" cy="72" r="72" transform="translate(106 1067)" fill="#2b394a"/>
      <path id="Path_1938" data-name="Path 1938" d="M-89.245,178.813a33.5,33.5,0,0,1-10.591-2.044c-1.9-.634-3.931-1.339-5.936-2.206-1.318-.569-2.584-1.224-3.809-1.857l-.813-.419c-.183-.094-.4-.206-.616-.328l-.419-.236c-2.408-1.352-4.9-2.75-7.266-4.322a139.787,139.787,0,0,1-12.026-8.9c-.657-.546-1.254-1.125-1.831-1.684-.2-.193-.4-.387-.6-.578-1.261-1.2-9.009-9.12-10.219-10.62-.995-1.233-1.957-2.505-2.889-3.735q-.674-.89-1.352-1.777-.153-.2-.308-.4c-.3-.384-.607-.781-.906-1.2-1.624-2.283-2.9-4.2-4.01-6.029-1.439-2.368-2.838-4.9-4.276-7.738-.7-1.378-1.429-2.865-2.033-4.4-.1-.249-.168-.479-.23-.683l-.037-.122c-.315-1.018-.671-2.06-1.015-3.067a57.546,57.546,0,0,1-1.947-6.543,12.7,12.7,0,0,1-.209-1.565c-.031-.352-.061-.684-.115-.974a13.213,13.213,0,0,1,2.078-10.26l.05-.07A22.725,22.725,0,0,1-149,89.1a6.431,6.431,0,0,1,8.07,3.071c.824,1.422,3.655,5.672,4.11,6.289l.042.059c.682,1,1.408,1.96,2.177,2.977a40.67,40.67,0,0,1,4.354,6.629,9.046,9.046,0,0,1,1.091,3.607,13.914,13.914,0,0,1-1.245,5.5,24.552,24.552,0,0,1-2.013,3.873c-.344.573-.668,1.115-.966,1.665l-.058.106-.07.1a4.042,4.042,0,0,0-.7,4.074,22.542,22.542,0,0,0,2.486,3.746c.434.571.882,1.161,1.309,1.769,1.351,1.766,4.667,5.231,6.088,6.715.591.617.8.837.909.963a45.2,45.2,0,0,0,5.485,5.065c.6.5,1.224,1.014,1.833,1.534.415.354.847.694,1.3,1.054s.941.741,1.412,1.142a5.139,5.139,0,0,0,5.349,1.065q1.009-.527,2.019-1.05c1.574-.817,3.2-1.661,4.782-2.512a9.117,9.117,0,0,1,10.441.773c.581.441,1.179.858,1.812,1.3.282.2.564.393.845.592l11.8,7.616c3.748,2.544,4.5,4.961,2.886,9.237-.238.629-.5,1.245-.744,1.84-.111.267-.223.534-.333.8l-.051.125-1.772,3.077-.908,1.1c-2.754,3.326-5.761,5.166-9.192,5.625A21.084,21.084,0,0,1-89.245,178.813Zm-68.089-79.362a9.206,9.206,0,0,0-1.409,7.208c.088.476.129.94.166,1.349a9.449,9.449,0,0,0,.135,1.08,53.732,53.732,0,0,0,1.82,6.085c.353,1.035.719,2.1,1.051,3.179l.043.141c.044.144.085.279.123.377.514,1.3,1.123,2.564,1.879,4.056,1.392,2.745,2.741,5.188,4.126,7.467,1.06,1.745,2.284,3.583,3.851,5.786.25.351.519.7.8,1.065l.321.415q.689.9,1.369,1.8c.913,1.206,1.857,2.453,2.813,3.638s8.37,8.816,9.858,10.228h0q.317.3.63.607c.547.53,1.064,1.031,1.6,1.479a135.9,135.9,0,0,0,11.679,8.639c2.244,1.49,4.667,2.85,7.011,4.166l.421.237c.159.089.319.172.48.255l.825.425c1.217.629,2.367,1.223,3.557,1.737,1.867.807,3.8,1.478,5.615,2.083,3.424,1.143,7.479,2.238,11.581,1.689,2.415-.323,4.52-1.659,6.627-4.2l.689-.834,1.468-2.549q.145-.352.292-.7c.246-.59.479-1.148.693-1.713a4.664,4.664,0,0,0,.487-2.64c-.154-.5-.743-1.078-1.851-1.832l-11.853-7.652c-.283-.2-.568-.4-.853-.6-.639-.445-1.3-.906-1.945-1.4a5.093,5.093,0,0,0-6.1-.433c-1.608.865-3.248,1.716-4.835,2.54q-1.074.557-2.147,1.117l-.131.069-.14.049a9.185,9.185,0,0,1-9.414-1.758c-.41-.35-.837-.686-1.289-1.042-.468-.368-.953-.75-1.429-1.157-.586-.5-1.2-1.006-1.787-1.5a48.876,48.876,0,0,1-5.961-5.531c-.068-.076-.426-.451-.773-.813-1.6-1.672-4.932-5.153-6.406-7.091l-.046-.063c-.39-.557-.8-1.1-1.242-1.678a25.866,25.866,0,0,1-2.913-4.446,7.9,7.9,0,0,1,.978-8.031c.323-.591.665-1.162,1-1.715a21.209,21.209,0,0,0,1.7-3.239,10.769,10.769,0,0,0,.984-3.915,5.68,5.68,0,0,0-.688-2,37.075,37.075,0,0,0-3.947-5.964c-.757-1-1.54-2.038-2.272-3.108-.591-.814-3.436-5.086-4.328-6.627a2.437,2.437,0,0,0-3.345-1.262A18.852,18.852,0,0,0-157.335,99.451Z" transform="translate(295.645 1004.982)" fill="#e5e8ee" stroke="#e5e8ee" stroke-width="1"/>
    </g>
  </g>
</svg>
