<svg xmlns="http://www.w3.org/2000/svg" width="60.393" height="72.674" viewBox="0 0 60.393 72.674">
  <g id="Group_2509" data-name="Group 2509" transform="translate(1.99 2.007)">
    <path id="Path_173" data-name="Path 173" d="M303.915,543.219c-8.676,0-17.352.013-26.028-.028-.712,0-2.021-.361-2.029-.589-.038-1.1-.079-2.492.533-3.269,1.614-2.049,3.612-3.794,5.354-5.748a3.688,3.688,0,0,0,.932-2.175c.082-5.113.018-10.226.054-15.336a29.908,29.908,0,0,1,1.949-11.143,19.546,19.546,0,0,1,11.734-11.576c2.334-.866,2.311-.4,2.344-3.207a5.219,5.219,0,0,1,10.126-1.744,9.971,9.971,0,0,1,.292,2.91,1.5,1.5,0,0,0,1.2,1.616c8.269,2.628,12.723,8.553,14.293,16.845a34.815,34.815,0,0,1,.515,6c.072,5.064.051,10.128.005,15.195a3.535,3.535,0,0,0,1.163,2.853c1.711,1.6,3.286,3.348,5,4.944,1.206,1.122.968,2.472.768,3.789-.044.279-.866.612-1.34.628-2.108.069-4.221.033-6.33.033Z" transform="translate(-275.84 -484.941)" fill="none" stroke="#5eb8f3" stroke-width="4"/>
    <path id="Path_174" data-name="Path 174" d="M291.169,509.009c1.921,0,3.842.008,5.761,0,.876-.005,1.306.259,1.089,1.263a7.312,7.312,0,0,1-6.624,5.753,7.083,7.083,0,0,1-7.052-4.962c-.515-1.57-.182-2.042,1.486-2.052,1.78-.013,3.56,0,5.341,0Z" transform="translate(-262.909 -447.368)" fill="none" stroke="#5eb8f3" stroke-width="4"/>
  </g>
</svg>
