<svg xmlns="http://www.w3.org/2000/svg" width="144" height="144" viewBox="0 0 144 144">
  <g id="Group_2227" data-name="Group 2227" transform="translate(-347 -1067)">
    <g id="Group_2226" data-name="Group 2226">
      <circle id="Ellipse_103" data-name="Ellipse 103" cx="72" cy="72" r="72" transform="translate(347 1067)" fill="#2b394a"/>
      <g id="Group_2210" data-name="Group 2210" transform="translate(376.496 1120.7)">
        <g id="Group_2209" data-name="Group 2209" transform="translate(0 0)">
          <g id="Group_2208" data-name="Group 2208">
            <path id="Path_1936" data-name="Path 1936" d="M112.248,198.322A10.461,10.461,0,0,0,103,192.776H66.96a10.462,10.462,0,0,0-9.246,5.546L44.3,223.471a10.527,10.527,0,0,0-1.232,4.93V243.07a8.392,8.392,0,0,0,8.382,8.382H118.51a8.392,8.392,0,0,0,8.382-8.382V228.4a10.542,10.542,0,0,0-1.232-4.932ZM122.7,243.07a4.2,4.2,0,0,1-4.191,4.191H51.452a4.2,4.2,0,0,1-4.191-4.191V228.4A6.339,6.339,0,0,1,48,225.441l13.413-25.147a6.273,6.273,0,0,1,5.546-3.328H103a6.273,6.273,0,0,1,5.546,3.328l13.413,25.145a6.351,6.351,0,0,1,.741,2.961Z" transform="translate(-43.069 -192.776)" fill="#e5e8ee" stroke="#e5e8ee" stroke-width="1"/>
            <circle id="Ellipse_162" data-name="Ellipse 162" cx="4.191" cy="4.191" r="4.191" transform="translate(25.144 12.574)" fill="#e5e8ee" stroke="#e5e8ee" stroke-width="1"/>
            <circle id="Ellipse_163" data-name="Ellipse 163" cx="4.191" cy="4.191" r="4.191" transform="translate(25.144 25.147)" fill="#e5e8ee" stroke="#e5e8ee" stroke-width="1"/>
            <circle id="Ellipse_164" data-name="Ellipse 164" cx="4.191" cy="4.191" r="4.191" transform="translate(25.144 37.721)" fill="#e5e8ee" stroke="#e5e8ee" stroke-width="1"/>
            <circle id="Ellipse_165" data-name="Ellipse 165" cx="4.191" cy="4.191" r="4.191" transform="translate(37.722 37.721)" fill="#e5e8ee" stroke="#e5e8ee" stroke-width="1"/>
            <circle id="Ellipse_166" data-name="Ellipse 166" cx="4.191" cy="4.191" r="4.191" transform="translate(50.291 37.721)" fill="#e5e8ee" stroke="#e5e8ee" stroke-width="1"/>
            <circle id="Ellipse_167" data-name="Ellipse 167" cx="4.191" cy="4.191" r="4.191" transform="translate(37.722 25.147)" fill="#e5e8ee" stroke="#e5e8ee" stroke-width="1"/>
            <circle id="Ellipse_168" data-name="Ellipse 168" cx="4.191" cy="4.191" r="4.191" transform="translate(50.291 25.147)" fill="#e5e8ee" stroke="#e5e8ee" stroke-width="1"/>
            <circle id="Ellipse_169" data-name="Ellipse 169" cx="4.191" cy="4.191" r="4.191" transform="translate(37.722 12.574)" fill="#e5e8ee" stroke="#e5e8ee" stroke-width="1"/>
            <circle id="Ellipse_170" data-name="Ellipse 170" cx="4.191" cy="4.191" r="4.191" transform="translate(50.291 12.574)" fill="#e5e8ee" stroke="#e5e8ee" stroke-width="1"/>
          </g>
        </g>
      </g>
      <g id="Group_2212" data-name="Group 2212" transform="translate(368.114 1093.5)">
        <path id="Path_1935" data-name="Path 1935" d="M9,53.169S30.611,28.415,56.151,29.2,99.517,45.114,99.517,45.114l6.338,7.073v2.554L92.5,68.1,75.8,55.723,74.366,40.6,59.294,37.649,40.837,41.578,39.059,55.723,23.145,68.1Z" transform="translate(-7.311 -27.793)" fill="#2b394a" stroke="#000" stroke-width="1"/>
        <path id="Path_1937" data-name="Path 1937" d="M99.273,43.265A66.59,66.59,0,0,0,50.7,22.109c-12.37,0-34.881,9.969-34.881,9.969S6.351,38.818,2.123,43.265a6.376,6.376,0,0,0,0,8.71L11.782,62.14a6.03,6.03,0,0,0,8.575,0,42.518,42.518,0,0,1,10.9-8.317,6.091,6.091,0,0,0,3.276-5.255l1.461-11.014c10.527-3.369,18.981-3.366,29.41,0l1.441,10.74a6.3,6.3,0,0,0,3.246,5.55,42.62,42.62,0,0,1,10.922,8.325,5.884,5.884,0,0,0,8.573,0l9.688-10.191a6.374,6.374,0,0,0,0-8.712Zm-3.037,5.822L86.548,59.281a1.732,1.732,0,0,1-2.5,0,46.733,46.733,0,0,0-11.97-9.125,2.279,2.279,0,0,1-1.062-2.138L69.384,35.7a2.1,2.1,0,0,0-1.4-1.707,52.461,52.461,0,0,0-17.246-3.139,53.209,53.209,0,0,0-17.325,3.137,2.094,2.094,0,0,0-1.4,1.709L30.36,48.292a2.05,2.05,0,0,1-1.044,1.817,46.77,46.77,0,0,0-12,9.142,1.741,1.741,0,0,1-2.5,0L5.16,49.087a2.177,2.177,0,0,1,0-2.933,62.149,62.149,0,0,1,91.076,0A2.177,2.177,0,0,1,96.236,49.088Z" transform="translate(-0.404 -22.109)" fill="#e5e8ee" stroke="#e5e8ee" stroke-width="1"/>
      </g>
    </g>
  </g>
</svg>
