<svg xmlns="http://www.w3.org/2000/svg" width="96" height="72" viewBox="0 0 96 72">
  <g id="Group_2779" data-name="Group 2779" transform="translate(-1810 -393)">
    <g id="Group_2770" data-name="Group 2770" transform="translate(18802 -5055)">
      <path id="Path_2154" data-name="Path 2154" d="M5,0H85a5,5,0,0,1,5,5V61a5,5,0,0,1-5,5H5a5,5,0,0,1-5-5V5A5,5,0,0,1,5,0Z" transform="translate(-16989 5451)" fill="#16202c"/>
      <g id="Group_2758" data-name="Group 2758" transform="translate(-16961.322 5461.409)">
        <g id="Group_116" data-name="Group 116" transform="translate(6.968)">
          <g id="Group_115" data-name="Group 115">
            <path id="Path_36" data-name="Path 36" d="M322.4,511.344a10.695,10.695,0,1,1,10.694-10.694A10.7,10.7,0,0,1,322.4,511.344Zm0-18.342a7.647,7.647,0,1,0,7.647,7.647A7.654,7.654,0,0,0,322.4,493Z" transform="translate(-311.71 -489.955)" fill="#fff" stroke="#fff" stroke-width="1"/>
          </g>
        </g>
        <g id="Group_118" data-name="Group 118" transform="translate(0 20.463)">
          <g id="Group_117" data-name="Group 117">
            <path id="Path_37" data-name="Path 37" d="M345.317,518.436h-3.048c0-11.247-6.554-20.4-14.615-20.4s-14.612,9.151-14.612,20.4H310c0-12.929,7.919-23.445,17.659-23.445S345.317,505.507,345.317,518.436Z" transform="translate(-309.995 -494.991)" fill="#fff" stroke="#fff" stroke-width="1"/>
          </g>
        </g>
      </g>
      <g id="Path_2155" data-name="Path 2155" transform="translate(-16992 5448)" fill="none">
        <path d="M11,0H85A11,11,0,0,1,96,11V61A11,11,0,0,1,85,72H11A11,11,0,0,1,0,61V11A11,11,0,0,1,11,0Z" stroke="none"/>
        <path d="M 11 4.099998474121094 C 7.195335388183594 4.099998474121094 4.099998474121094 7.195335388183594 4.099998474121094 11 L 4.099998474121094 61 C 4.099998474121094 64.80466461181641 7.195335388183594 67.90000152587891 11 67.90000152587891 L 85 67.90000152587891 C 88.80466461181641 67.90000152587891 91.90000152587891 64.80466461181641 91.90000152587891 61 L 91.90000152587891 11 C 91.90000152587891 7.195335388183594 88.80466461181641 4.099998474121094 85 4.099998474121094 L 11 4.099998474121094 M 11 0 L 85 0 C 91.07513427734375 0 96 4.92486572265625 96 11 L 96 61 C 96 67.07513427734375 91.07513427734375 72 85 72 L 11 72 C 4.92486572265625 72 0 67.07513427734375 0 61 L 0 11 C 0 4.92486572265625 4.92486572265625 0 11 0 Z" stroke="none" fill="#fff"/>
      </g>
    </g>
  </g>
</svg>
