<svg xmlns="http://www.w3.org/2000/svg" width="124.797" height="92.924" viewBox="0 0 124.797 92.924">
  <g id="Group_2594" data-name="Group 2594" transform="translate(-932.59 -1798.036)">
    <g id="Group_140" data-name="Group 140" transform="translate(933.09 1798.536)">
      <g id="Group_119" data-name="Group 119" transform="translate(39.449 12.7)">
        <g id="Group_116" data-name="Group 116" transform="translate(8.858)">
          <g id="Group_115" data-name="Group 115">
            <path id="Path_36" data-name="Path 36" d="M325.3,517.143a13.594,13.594,0,1,1,13.594-13.594A13.607,13.607,0,0,1,325.3,517.143Zm0-23.314a9.72,9.72,0,1,0,9.72,9.72A9.729,9.729,0,0,0,325.3,493.829Z" transform="translate(-311.71 -489.955)" fill="#5eb8f3"/>
          </g>
        </g>
        <g id="Group_118" data-name="Group 118" transform="translate(0 26.01)">
          <g id="Group_117" data-name="Group 117">
            <path id="Path_37" data-name="Path 37" d="M354.893,524.792H351.02c0-14.3-8.331-25.928-18.578-25.928s-18.573,11.631-18.573,25.928H310c0-16.435,10.066-29.8,22.447-29.8S354.893,508.358,354.893,524.792Z" transform="translate(-309.995 -494.991)" fill="#5eb8f3"/>
          </g>
        </g>
      </g>
      <g id="Group_121" data-name="Group 121" transform="translate(0 0)">
        <g id="Group_120" data-name="Group 120">
          <path id="Path_38" data-name="Path 38" d="M412.106,579.421h-95.7a14.068,14.068,0,0,1-14.049-14.054V501.55A14.068,14.068,0,0,1,316.406,487.5h95.7a14.068,14.068,0,0,1,14.049,14.054v63.817A14.068,14.068,0,0,1,412.106,579.421Zm-95.7-88.051a10.189,10.189,0,0,0-10.175,10.18v63.817a10.189,10.189,0,0,0,10.175,10.18h95.7a10.189,10.189,0,0,0,10.175-10.18V501.55a10.189,10.189,0,0,0-10.175-10.18Z" transform="translate(-302.357 -487.496)" fill="#5eb8f3" stroke="#5eb8f3" stroke-width="1"/>
        </g>
      </g>
      <g id="Group_130" data-name="Group 130" transform="translate(14.203 35.634)">
        <g id="Group_123" data-name="Group 123" transform="translate(0 3.733)">
          <g id="Group_122" data-name="Group 122">
            <path id="Path_39" data-name="Path 39" d="M306.135,510.205l-1.028-.165c.052-1.394.015-2.753.176-4.1.765-6.4,5.263-10.774,11.084-10.826,6.219-.057,10.965,5.537,10.314,12.292a8.113,8.113,0,0,1-1.152,3.4A3.69,3.69,0,0,1,320.71,512a4.155,4.155,0,0,1-2-4.54c.325-1.9-.346-3.274-1.834-3.75a2.675,2.675,0,0,0-3.326,1.57,10.176,10.176,0,0,0-.542,3.487,9.1,9.1,0,0,0,3.9,7.494,12.551,12.551,0,0,1,1.069,1l-.78.63c-4.183-2.03-6.348-7.484-4.974-12.391a3.937,3.937,0,1,1,7.665,1.772c-.392,2,.527,3.61,2.205,3.853,1.663.237,3.027-.961,3.362-2.965.811-4.824-1.72-9.5-5.816-11.094a9.638,9.638,0,0,0-11.42,3.786,13.8,13.8,0,0,0-1.952,7.784C306.274,509.115,306.192,509.606,306.135,510.205Z" transform="translate(-305.107 -495.118)" fill="#5eb8f3" stroke="rgba(0,0,0,0)" stroke-width="1"/>
          </g>
        </g>
        <g id="Group_125" data-name="Group 125" transform="translate(3.317 7.327)">
          <g id="Group_124" data-name="Group 124">
            <path id="Path_40" data-name="Path 40" d="M319.574,506.01a6.221,6.221,0,0,1-.114-1.286c.387-3.285-.754-5.738-3.429-7.05-3.512-1.725-7.933.63-8.765,4.989a13.673,13.673,0,0,0,1.023,8.672c.155.336.279.692.46,1.126l-.816.61a6.086,6.086,0,0,1-.532-.739,14.381,14.381,0,0,1-.992-11.011,7.744,7.744,0,0,1,7.375-5.506c4.24.057,7.345,3.915,6.89,8.595C320.617,505.023,320.664,505.809,319.574,506.01Z" transform="translate(-305.749 -495.814)" fill="#5eb8f3" stroke="rgba(0,0,0,0)" stroke-width="1"/>
          </g>
        </g>
        <g id="Group_127" data-name="Group 127" transform="translate(6.12)">
          <g id="Group_126" data-name="Group 126">
            <path id="Path_41" data-name="Path 41" d="M322.076,499.239a2.636,2.636,0,0,1-.062.392,3.445,3.445,0,0,1-.279.455,4.151,4.151,0,0,1-.935-.5,13.866,13.866,0,0,0-13.48-3.5,3.429,3.429,0,0,1-.95-.005c-.258-.873.17-1.146.666-1.2a33.989,33.989,0,0,1,5.563-.465,13.979,13.979,0,0,1,8.982,4.178,3.915,3.915,0,0,1,.346.367A1.773,1.773,0,0,1,322.076,499.239Z" transform="translate(-306.292 -494.395)" fill="#5eb8f3" stroke="rgba(0,0,0,0)" stroke-width="1"/>
          </g>
        </g>
        <g id="Group_129" data-name="Group 129" transform="translate(10.06 14.553)">
          <g id="Group_128" data-name="Group 128">
            <path id="Path_42" data-name="Path 42" d="M314.4,505.921l-.067,1.095a6.368,6.368,0,0,1-5.583-2.376,7.808,7.808,0,0,1-1.3-7.427l.971.165C307.619,502.683,309.742,505.374,314.4,505.921Z" transform="translate(-307.055 -497.213)" fill="#5eb8f3" stroke="rgba(0,0,0,0)" stroke-width="1"/>
          </g>
        </g>
      </g>
      <g id="Group_139" data-name="Group 139" transform="translate(87.689 35.634)">
        <g id="Group_132" data-name="Group 132" transform="translate(0.271 3.733)">
          <g id="Group_131" data-name="Group 131">
            <path id="Path_43" data-name="Path 43" d="M339.993,510.205l1.028-.165c-.052-1.394-.015-2.753-.176-4.1-.764-6.4-5.263-10.774-11.084-10.826-6.219-.057-10.965,5.537-10.314,12.292a8.041,8.041,0,0,0,1.152,3.4A3.69,3.69,0,0,0,325.418,512a4.154,4.154,0,0,0,2-4.54c-.325-1.9.346-3.274,1.834-3.75a2.675,2.675,0,0,1,3.326,1.57,10.161,10.161,0,0,1,.542,3.487,9.1,9.1,0,0,1-3.9,7.494,12.5,12.5,0,0,0-1.069,1l.78.63c4.184-2.03,6.348-7.484,4.974-12.391a3.937,3.937,0,1,0-7.665,1.772c.393,2-.527,3.61-2.205,3.853-1.663.237-3.027-.961-3.362-2.965-.811-4.824,1.72-9.5,5.816-11.094a9.638,9.638,0,0,1,11.419,3.786,13.756,13.756,0,0,1,1.947,7.784C339.854,509.115,339.936,509.606,339.993,510.205Z" transform="translate(-319.388 -495.118)" fill="#5eb8f3" stroke="rgba(0,0,0,0)" stroke-width="1"/>
          </g>
        </g>
        <g id="Group_134" data-name="Group 134" transform="translate(3.617 7.327)">
          <g id="Group_133" data-name="Group 133">
            <path id="Path_44" data-name="Path 44" d="M321.18,506.01a6.221,6.221,0,0,0,.114-1.286c-.387-3.285.754-5.738,3.43-7.05,3.507-1.725,7.933.63,8.765,4.989a13.672,13.672,0,0,1-1.023,8.672c-.155.336-.284.692-.46,1.126l.816.61a6.08,6.08,0,0,0,.532-.739,14.381,14.381,0,0,0,.992-11.011,7.746,7.746,0,0,0-7.381-5.506c-4.235.057-7.345,3.915-6.885,8.595C320.137,505.023,320.091,505.809,321.18,506.01Z" transform="translate(-320.035 -495.814)" fill="#5eb8f3" stroke="rgba(0,0,0,0)" stroke-width="1"/>
          </g>
        </g>
        <g id="Group_136" data-name="Group 136">
          <g id="Group_135" data-name="Group 135">
            <path id="Path_45" data-name="Path 45" d="M319.335,499.239a2.665,2.665,0,0,0,.062.392,3.492,3.492,0,0,0,.279.455,4.15,4.15,0,0,0,.935-.5,13.865,13.865,0,0,1,13.48-3.5,3.429,3.429,0,0,0,.95-.005c.258-.873-.171-1.146-.671-1.2a33.878,33.878,0,0,0-5.557-.465,13.968,13.968,0,0,0-8.982,4.178,3.908,3.908,0,0,0-.346.367A1.811,1.811,0,0,0,319.335,499.239Z" transform="translate(-319.335 -494.395)" fill="#5eb8f3" stroke="rgba(0,0,0,0)" stroke-width="1"/>
          </g>
        </g>
        <g id="Group_138" data-name="Group 138" transform="translate(4.499 14.553)">
          <g id="Group_137" data-name="Group 137">
            <path id="Path_46" data-name="Path 46" d="M320.206,505.921l.067,1.095a6.368,6.368,0,0,0,5.583-2.376,7.808,7.808,0,0,0,1.3-7.427l-.971.165C326.988,502.683,324.865,505.374,320.206,505.921Z" transform="translate(-320.206 -497.213)" fill="#5eb8f3" stroke="rgba(0,0,0,0)" stroke-width="1"/>
          </g>
        </g>
      </g>
    </g>
  </g>
</svg>
