<svg xmlns="http://www.w3.org/2000/svg" width="89.512" height="72.521" viewBox="0 0 89.512 72.521">
  <g id="Group_2718" data-name="Group 2718" transform="translate(-292 -2011.479)">
    <g id="Group_1673" data-name="Group 1673" transform="translate(-119 42.713)">
      <circle id="Ellipse_131" data-name="Ellipse 131" cx="31.5" cy="31.5" r="31.5" transform="translate(411 1978.287)" fill="#5eb8f3"/>
      <g id="Group_1670" data-name="Group 1670" transform="translate(421.204 1988.595)">
        <g id="Group_1672" data-name="Group 1672" transform="translate(0 0)">
          <g id="Group_1670-2" data-name="Group 1670" transform="translate(0 20.909)">
            <rect id="Rectangle_154" data-name="Rectangle 154" width="42.985" height="1.168" fill="#fff" stroke="#fff" stroke-miterlimit="10" stroke-width="2"/>
          </g>
          <g id="Group_1671" data-name="Group 1671" transform="translate(22.077) rotate(90)">
            <rect id="Rectangle_154-2" data-name="Rectangle 154" width="42.985" height="1.168" fill="#fff" stroke="#fff" stroke-miterlimit="10" stroke-width="2"/>
          </g>
        </g>
      </g>
    </g>
    <g id="Group_1676" data-name="Group 1676" transform="translate(-8 -5.758)">
      <g id="Group_1674" data-name="Group 1674" transform="translate(342.869 2019.758)">
        <path id="Path_1763" data-name="Path 1763" d="M6940.319-494.814c4.873-23.557,20.895-6.413,20.895-6.413l10.1,8.231v15.48s-5.194,14.237-14.969,13.365S6935.446-471.257,6940.319-494.814Z" transform="translate(-6932.852 513.087)" fill="#fff"/>
        <g id="Group_1669" data-name="Group 1669" transform="translate(0)">
          <g id="Group_52" data-name="Group 52" transform="translate(0 3.857)">
            <line id="Line_7" data-name="Line 7" x2="42.592" y2="42.607" transform="translate(0 0.551)" fill="none"/>
            <line id="Line_8" data-name="Line 8" x1="42.225" y2="43.158" fill="none"/>
          </g>
          <g id="Group_630" data-name="Group 630" transform="translate(0.201)">
            <path id="Path_86" data-name="Path 86" d="M1221.279,491.725c-2.986-1.079-4.672-3.142-4.674-6.143s1.738-5.038,4.739-6.169c0-1.113.01-2.24,0-3.368a16.6,16.6,0,0,1,2.767-9.3,17.249,17.249,0,0,1,17.833-7.488,16.94,16.94,0,0,1,13.277,12.354,25.014,25.014,0,0,1,.658,4.932c.088.941.016,1.9.016,2.869,2.966,1.185,4.749,3.2,4.65,6.4-.091,2.942-1.811,4.8-4.6,5.911-.248,5.795-2.478,10.657-7.274,14.155a17.2,17.2,0,0,1-19.211.66,17.56,17.56,0,0,1-6.031-6.359A17.784,17.784,0,0,1,1221.279,491.725Zm3.272-12.506c-.028.614-.061.991-.061,1.369,0,3.909-.059,7.82.011,11.729a13.961,13.961,0,0,0,12.9,13.637,14.18,14.18,0,0,0,15.357-14.258c.016-3.671.005-7.343,0-11.014,0-.411-.05-.822-.082-1.33-4.767.269-7.962-1.775-9.517-6.314C1237.252,476.265,1231.365,479,1224.552,479.219Zm-3.328,3.9c-1.852,1.212-2.042,3.676,0,4.831Zm34.777-.1v5.139C1257.9,486.357,1257.907,484.909,1256,483.012Z" transform="translate(-1216.605 -458.884)" stroke="#fff" stroke-width="5"/>
            <g id="Group_629" data-name="Group 629" transform="translate(14.089 23.631)">
              <rect id="Rectangle_182" data-name="Rectangle 182" width="3.133" height="6.156" rx="1.567" stroke="#fff" stroke-width="5"/>
              <rect id="Rectangle_183" data-name="Rectangle 183" width="3.133" height="6.156" rx="1.567" transform="translate(12.653)" stroke="#fff" stroke-width="5"/>
              <g id="Group_267" data-name="Group 267" transform="translate(1.456 13.28)">
                <path id="Path_88" data-name="Path 88" d="M1271.315,590.536a8.033,8.033,0,0,0,12.055,0c1.314-1.485-.864-3.679-2.186-2.186a5.318,5.318,0,0,1-3.842,1.945,5.853,5.853,0,0,1-3.842-1.945c-1.306-1.5-3.485.689-2.186,2.186Z" transform="translate(-1270.916 -587.845)" stroke="#fff" stroke-width="5"/>
              </g>
            </g>
          </g>
        </g>
      </g>
      <g id="Group_1675" data-name="Group 1675" transform="translate(342.869 2019.758)">
        <path id="Path_1763-2" data-name="Path 1763" d="M6940.319-494.814c4.873-23.557,20.895-6.413,20.895-6.413l10.1,8.231v15.48s-5.194,14.237-14.969,13.365S6935.446-471.257,6940.319-494.814Z" transform="translate(-6932.852 513.087)" fill="#fff"/>
        <g id="Group_1669-2" data-name="Group 1669" transform="translate(0)">
          <g id="Group_52-2" data-name="Group 52" transform="translate(0 3.857)">
            <line id="Line_7-2" data-name="Line 7" x2="42.592" y2="42.607" transform="translate(0 0.551)" fill="none"/>
            <line id="Line_8-2" data-name="Line 8" x1="42.225" y2="43.158" fill="none"/>
          </g>
          <g id="Group_630-2" data-name="Group 630" transform="translate(0.201)">
            <path id="Path_86-2" data-name="Path 86" d="M1221.279,491.725c-2.986-1.079-4.672-3.142-4.674-6.143s1.738-5.038,4.739-6.169c0-1.113.01-2.24,0-3.368a16.6,16.6,0,0,1,2.767-9.3,17.249,17.249,0,0,1,17.833-7.488,16.94,16.94,0,0,1,13.277,12.354,25.014,25.014,0,0,1,.658,4.932c.088.941.016,1.9.016,2.869,2.966,1.185,4.749,3.2,4.65,6.4-.091,2.942-1.811,4.8-4.6,5.911-.248,5.795-2.478,10.657-7.274,14.155a17.2,17.2,0,0,1-19.211.66,17.56,17.56,0,0,1-6.031-6.359A17.784,17.784,0,0,1,1221.279,491.725Zm3.272-12.506c-.028.614-.061.991-.061,1.369,0,3.909-.059,7.82.011,11.729a13.961,13.961,0,0,0,12.9,13.637,14.18,14.18,0,0,0,15.357-14.258c.016-3.671.005-7.343,0-11.014,0-.411-.05-.822-.082-1.33-4.767.269-7.962-1.775-9.517-6.314C1237.252,476.265,1231.365,479,1224.552,479.219Zm-3.328,3.9c-1.852,1.212-2.042,3.676,0,4.831Zm34.777-.1v5.139C1257.9,486.357,1257.907,484.909,1256,483.012Z" transform="translate(-1216.605 -458.884)" fill="#5eb8f3"/>
            <g id="Group_629-2" data-name="Group 629" transform="translate(14.089 23.631)">
              <rect id="Rectangle_182-2" data-name="Rectangle 182" width="3.133" height="6.156" rx="1.567" fill="#5eb8f3"/>
              <rect id="Rectangle_183-2" data-name="Rectangle 183" width="3.133" height="6.156" rx="1.567" transform="translate(12.653)" fill="#5eb8f3"/>
              <g id="Group_267-2" data-name="Group 267" transform="translate(1.456 13.28)">
                <path id="Path_88-2" data-name="Path 88" d="M1271.315,590.536a8.033,8.033,0,0,0,12.055,0c1.314-1.485-.864-3.679-2.186-2.186a5.318,5.318,0,0,1-3.842,1.945,5.853,5.853,0,0,1-3.842-1.945c-1.306-1.5-3.485.689-2.186,2.186Z" transform="translate(-1270.916 -587.845)" fill="#5eb8f3"/>
              </g>
            </g>
          </g>
        </g>
      </g>
    </g>
  </g>
</svg>
