<svg xmlns="http://www.w3.org/2000/svg" width="144" height="144" viewBox="0 0 144 144">
  <g id="Group_2634" data-name="Group 2634" transform="translate(-600.276 -1355)">
    <g id="Group_2220" data-name="Group 2220" transform="translate(0.276)">
      <g id="Group_1957" data-name="Group 1957" transform="translate(579.504 1307.354)">
        <circle id="Ellipse_103" data-name="Ellipse 103" cx="72" cy="72" r="72" transform="translate(20.496 47.646)" fill="#2b394a"/>
      </g>
    </g>
    <g id="Group_2246" data-name="Group 2246" transform="translate(335.886 -626)">
      <g id="Group_1673" data-name="Group 1673" transform="translate(292 2021.707)">
        <ellipse id="Ellipse_131" data-name="Ellipse 131" cx="34.5" cy="35" rx="34.5" ry="35" transform="translate(0.39 -0.175)" fill="#e5e8ee"/>
        <g id="Group_1670" data-name="Group 1670" transform="translate(11.233 11.348)">
          <g id="Group_1672" data-name="Group 1672" transform="translate(0 0)">
            <g id="Group_1670-2" data-name="Group 1670" transform="translate(0 23.018)">
              <rect id="Rectangle_154" data-name="Rectangle 154" width="47.323" height="1.286" fill="#2b394a" stroke="#2b394a" stroke-miterlimit="10" stroke-width="2"/>
            </g>
            <g id="Group_1671" data-name="Group 1671" transform="translate(24.305) rotate(90)">
              <rect id="Rectangle_154-2" data-name="Rectangle 154" width="47.323" height="1.286" fill="#2b394a" stroke="#2b394a" stroke-miterlimit="10" stroke-width="2"/>
            </g>
          </g>
        </g>
      </g>
      <g id="Group_1676" data-name="Group 1676" transform="translate(339.195 2014)">
        <g id="Group_1674" data-name="Group 1674" transform="translate(0)">
          <path id="Path_1763" data-name="Path 1763" d="M6940.439-493.559c5.365-25.934,23-7.06,23-7.06l11.117,9.061v17.042s-5.719,15.674-16.479,14.714S6935.075-467.625,6940.439-493.559Z" transform="translate(-6932.218 513.677)" fill="#fff"/>
          <g id="Group_1669" data-name="Group 1669" transform="translate(0)">
            <g id="Group_52" data-name="Group 52" transform="translate(0 4.246)">
              <line id="Line_7" data-name="Line 7" x2="46.89" y2="46.906" transform="translate(0 0.606)" fill="none"/>
              <line id="Line_8" data-name="Line 8" x1="46.485" y2="47.513" fill="none"/>
            </g>
            <g id="Group_630" data-name="Group 630" transform="translate(0.221)">
              <path id="Path_86" data-name="Path 86" d="M1221.751,495.039c-3.287-1.188-5.144-3.459-5.146-6.763s1.913-5.546,5.217-6.792c0-1.225.011-2.467,0-3.708a18.272,18.272,0,0,1,3.046-10.234A18.99,18.99,0,0,1,1244.5,459.3c7.545,1.718,12.39,6.28,14.617,13.6a27.532,27.532,0,0,1,.724,5.43c.1,1.036.018,2.087.018,3.159,3.265,1.3,5.229,3.52,5.119,7.041-.1,3.239-1.994,5.285-5.06,6.507-.273,6.38-2.728,11.732-8.008,15.583a18.934,18.934,0,0,1-21.15.726,19.333,19.333,0,0,1-6.639-7A19.578,19.578,0,0,1,1221.751,495.039Zm3.6-13.768c-.031.676-.067,1.091-.067,1.507,0,4.3-.065,8.609.012,12.912a15.37,15.37,0,0,0,14.2,15.013,15.61,15.61,0,0,0,16.907-15.7c.018-4.042.006-8.084,0-12.125,0-.452-.055-.9-.091-1.464-5.248.3-8.765-1.954-10.477-6.951C1239.336,478.019,1232.855,481.028,1225.354,481.271Zm-3.664,4.289c-2.038,1.335-2.248,4.047,0,5.319Zm38.286-.113V491.1C1262.063,489.13,1262.075,487.535,1259.976,485.447Z" transform="translate(-1216.605 -458.884)" stroke="#e5e8ee" stroke-width="5"/>
              <g id="Group_629" data-name="Group 629" transform="translate(15.511 26.015)">
                <rect id="Rectangle_182" data-name="Rectangle 182" width="3.449" height="6.777" rx="1.725" stroke="#fff" stroke-width="5"/>
                <rect id="Rectangle_183" data-name="Rectangle 183" width="3.449" height="6.777" rx="1.725" transform="translate(13.93)" stroke="#fff" stroke-width="5"/>
                <g id="Group_267" data-name="Group 267" transform="translate(1.602 14.62)">
                  <path id="Path_88" data-name="Path 88" d="M1271.356,590.808a8.844,8.844,0,0,0,13.271,0c1.447-1.635-.952-4.051-2.406-2.406a5.855,5.855,0,0,1-4.229,2.141,6.444,6.444,0,0,1-4.229-2.141c-1.438-1.657-3.836.759-2.406,2.406Z" transform="translate(-1270.916 -587.845)" stroke="#fff" stroke-width="5"/>
                </g>
              </g>
            </g>
          </g>
        </g>
        <g id="Group_1675" data-name="Group 1675" transform="translate(0)">
          <path id="Path_1763-2" data-name="Path 1763" d="M6940.439-493.559c5.365-25.934,23-7.06,23-7.06l11.117,9.061v17.042s-5.719,15.674-16.479,14.714S6935.075-467.625,6940.439-493.559Z" transform="translate(-6932.218 513.677)" fill="#e5e8ee"/>
          <g id="Group_1669-2" data-name="Group 1669" transform="translate(0)">
            <g id="Group_52-2" data-name="Group 52" transform="translate(0 4.246)">
              <line id="Line_7-2" data-name="Line 7" x2="46.89" y2="46.906" transform="translate(0 0.606)" fill="none"/>
              <line id="Line_8-2" data-name="Line 8" x1="46.485" y2="47.513" fill="none"/>
            </g>
            <g id="Group_630-2" data-name="Group 630" transform="translate(0.221)">
              <path id="Path_86-2" data-name="Path 86" d="M1221.751,495.039c-3.287-1.188-5.144-3.459-5.146-6.763s1.913-5.546,5.217-6.792c0-1.225.011-2.467,0-3.708a18.272,18.272,0,0,1,3.046-10.234A18.99,18.99,0,0,1,1244.5,459.3c7.545,1.718,12.39,6.28,14.617,13.6a27.532,27.532,0,0,1,.724,5.43c.1,1.036.018,2.087.018,3.159,3.265,1.3,5.229,3.52,5.119,7.041-.1,3.239-1.994,5.285-5.06,6.507-.273,6.38-2.728,11.732-8.008,15.583a18.934,18.934,0,0,1-21.15.726,19.333,19.333,0,0,1-6.639-7A19.578,19.578,0,0,1,1221.751,495.039Zm3.6-13.768c-.031.676-.067,1.091-.067,1.507,0,4.3-.065,8.609.012,12.912a15.37,15.37,0,0,0,14.2,15.013,15.61,15.61,0,0,0,16.907-15.7c.018-4.042.006-8.084,0-12.125,0-.452-.055-.9-.091-1.464-5.248.3-8.765-1.954-10.477-6.951C1239.336,478.019,1232.855,481.028,1225.354,481.271Zm-3.664,4.289c-2.038,1.335-2.248,4.047,0,5.319Zm38.286-.113V491.1C1262.063,489.13,1262.075,487.535,1259.976,485.447Z" transform="translate(-1216.605 -458.884)" fill="#2b394a"/>
              <g id="Group_629-2" data-name="Group 629" transform="translate(15.511 26.015)">
                <rect id="Rectangle_182-2" data-name="Rectangle 182" width="3.449" height="6.777" rx="1.725" fill="#2b394a"/>
                <rect id="Rectangle_183-2" data-name="Rectangle 183" width="3.449" height="6.777" rx="1.725" transform="translate(13.93)" fill="#2b394a"/>
                <g id="Group_267-2" data-name="Group 267" transform="translate(1.602 14.62)">
                  <path id="Path_88-2" data-name="Path 88" d="M1271.356,590.808a8.844,8.844,0,0,0,13.271,0c1.447-1.635-.952-4.051-2.406-2.406a5.855,5.855,0,0,1-4.229,2.141,6.444,6.444,0,0,1-4.229-2.141c-1.438-1.657-3.836.759-2.406,2.406Z" transform="translate(-1270.916 -587.845)" fill="#2b394a"/>
                </g>
              </g>
            </g>
          </g>
        </g>
      </g>
    </g>
  </g>
</svg>
