<svg xmlns="http://www.w3.org/2000/svg" width="162.114" height="160" viewBox="0 0 162.114 160">
  <g id="Group_2529" data-name="Group 2529" transform="translate(-164.001 -1308)">
    <g id="Group_2392" data-name="Group 2392" transform="translate(164.001 1308)">
      <rect id="Rectangle_801" data-name="Rectangle 801" width="162.114" height="160" rx="43" transform="translate(0 0)" fill="#fff"/>
      <g id="Group_2389" data-name="Group 2389" transform="translate(23.244 32.423)">
        <path id="Path_1863" data-name="Path 1863" d="M203-105.964h71.017a6.717,6.717,0,0,1,6.717,6.717V-58.88a6.693,6.693,0,0,1-1.832,4.61c-1.224,1.3-14.993-20.719-21.838-14.961-8.388,7.057,5.858,17.067,5.858,17.067h-49s14.779-10.41,5.592-17.6c-5.207-4.075-21.553,15.328-21.553,15.328s-1.681-2.74-1.681-4.445V-99.248A6.716,6.716,0,0,1,203-105.964Z" transform="translate(-180.772 107.494)"/>
        <g id="Group_1968" data-name="Group 1968" transform="translate(0)">
          <path id="Path_1858" data-name="Path 1858" d="M248.61,815.4h-2.9v-2.9h2.9Z" transform="translate(-225.409 -725.775)"/>
          <path id="Path_1859" data-name="Path 1859" d="M1026.96,812.5h2.9v2.9h-2.9Z" transform="translate(-934.156 -725.775)"/>
          <g id="Group_1971" data-name="Group 1971">
            <path id="Path_1860" data-name="Path 1860" d="M803.247-4.762h-13.41a4.374,4.374,0,0,1-4.369-4.369V-21.237a4.374,4.374,0,0,1,4.369-4.369h13.41a4.374,4.374,0,0,1,4.369,4.369V-9.13A4.374,4.374,0,0,1,803.247-4.762ZM789.837-23.75a2.516,2.516,0,0,0-2.513,2.513V-9.13a2.516,2.516,0,0,0,2.513,2.513h13.41a2.515,2.515,0,0,0,2.513-2.513V-21.237a2.515,2.515,0,0,0-2.513-2.513Z" transform="translate(-715.075 34.552)" fill="#dcd8e8"/>
            <g id="Group_1969" data-name="Group 1969" transform="translate(24.691 29.593)">
              <rect id="Rectangle_825" data-name="Rectangle 825" width="39.152" height="2.83" transform="translate(0)" fill="#dcd8e8"/>
            </g>
            <path id="Path_1861" data-name="Path 1861" d="M109.524-64.285l1.885,2.055.1,3.076a20.962,20.962,0,0,0,1.806,18.612l.833,1.332v14.086a1.45,1.45,0,0,0,1.45,1.45h26.1a1.45,1.45,0,0,0,1.45-1.45V-72.989A18.977,18.977,0,0,0,137.6-86.355l-8.945-8.961V-114.75A7.26,7.26,0,0,0,121.4-122H48.711a7.26,7.26,0,0,0-7.25,7.25v19.434l-8.945,8.961A18.977,18.977,0,0,0,26.96-72.989v47.865a1.45,1.45,0,0,0,1.45,1.45h26.1a1.45,1.45,0,0,0,1.45-1.45V-39.21l.833-1.332A20.962,20.962,0,0,0,58.6-59.154h0l.1-3.076,1.885-2.055Zm19.126-7.242V-86.644l4.4,11.424a4.35,4.35,0,0,1-2.5,5.622l-2.516.972A7.252,7.252,0,0,0,128.65-71.526Zm-86.578,2.9L39.557-69.6a4.35,4.35,0,0,1-2.5-5.622l4.4-11.424v15.118A7.252,7.252,0,0,0,42.073-68.626ZM53.061-26.574H29.86v-11.6h23.2ZM54.893-62.35a1.45,1.45,0,0,0-.19,1.7,18.083,18.083,0,0,1-.367,18.571l-.629,1H29.86V-72.989A16.058,16.058,0,0,1,34.566-84.3l4.7-4.707L34.355-76.264A7.251,7.251,0,0,0,38.513-66.9a11.189,11.189,0,0,0,1.488.58l.062.012a6.573,6.573,0,0,0,5.848-1.819L59.793-82a4.836,4.836,0,0,1,6.758-.066,4.835,4.835,0,0,1,.225,6.754Zm8.352-4.826,5.663-6.185A7.736,7.736,0,0,0,68.5-84.112a7.736,7.736,0,0,0-10.758.053L44.459-70.775a4.4,4.4,0,0,1-.1-.751V-94.178l.013-.033h-.013V-114.75a4.35,4.35,0,0,1,4.35-4.35H121.4a4.35,4.35,0,0,1,4.35,4.35v20.539h-.013l.013.033v22.652a4.4,4.4,0,0,1-.1.751L112.369-84.059a7.736,7.736,0,0,0-10.758-.053,7.736,7.736,0,0,0-.408,10.751l5.663,6.185Zm77.006,40.6h-23.2v-11.6h23.2Zm0-14.5H116.4l-.629-1a18.082,18.082,0,0,1-.367-18.571,1.45,1.45,0,0,0-.19-1.7L103.335-75.314a4.835,4.835,0,0,1,.225-6.754,4.836,4.836,0,0,1,6.758.066L124.2-68.123a6.573,6.573,0,0,0,5.848,1.819l.062-.012a11.189,11.189,0,0,0,1.488-.58,7.251,7.251,0,0,0,4.157-9.368l-4.908-12.745,4.7,4.707a16.058,16.058,0,0,1,4.706,11.312Z" transform="translate(-26.96 122)"/>
          </g>
        </g>
      </g>
    </g>
  </g>
</svg>
