<svg xmlns="http://www.w3.org/2000/svg" width="61" height="61.003" viewBox="0 0 61 61.003">
  <g id="Group_2654" data-name="Group 2654" transform="translate(-182.34 -140.85)">
    <g id="Group_2649" data-name="Group 2649" transform="translate(187.391 145.016)">
      <path id="Path_2111" data-name="Path 2111" d="M247.327,178.876c-.112.018-.265-.214-.4-.334-1.015-.9-2.027-1.8-3.057-2.683a6.558,6.558,0,0,0-1.262-.888c-.584-.3-.932-.018-.95.693-.007.243.011.486,0,.725-.044.78-.286,1.008-1.073,1.059a4.628,4.628,0,0,1-2.93-.841,13.38,13.38,0,0,1-3.245-3.557c-.954-1.229-1.748-2.589-3.206-3.361-1.49-.783-3.064-1.363-4.584-2.067-.736-.341-1.632-.062-2.252-.693-.7.355-1.392.714-2.092,1.07a4.249,4.249,0,0,1-.754.366c-.138.04-.461-.069-.461-.12-.025-.526-.2-1.2.051-1.548a4.319,4.319,0,0,1,2.125-1.8c1.084-.312,2.056-.878,3.119-1.229,1.309-.435,1.385-.551.986-1.8-.218-.682-.424-1.356.138-1.962a18.184,18.184,0,0,1,3.789-2.669,1.239,1.239,0,0,1,1.683.49c.214.388.366.816.544,1.222.457-.21.914-.413,1.367-.631a12.2,12.2,0,0,1,1.661-.794c.841-.25.12-.522,0-.6a31.407,31.407,0,0,0-5.842-2.948,27.005,27.005,0,0,0-3.565-1.019c-1.3-.279-2.625-.413-3.938-.613a.807.807,0,0,0-.015.083c-.424,0-.845-.007-1.269.011-.036,0-.069.16-.1.247.91.105.577.805.66,1.331a2.152,2.152,0,0,0,.381,1.091c.185.2.635.167.972.218a5.327,5.327,0,0,1,.54.011,1.951,1.951,0,0,1,.994,1.342c.025.783-.587.344-.907.471-.051.018-.08.094-.131.123a78.2,78.2,0,0,1-7.963,3.086,6.253,6.253,0,0,1-3.307.772c-.261-.047-.667.167-.725-.272a1.043,1.043,0,0,1,.185-.805c.878-.762,1.806-1.461,2.712-2.187s1.813-1.458,2.712-2.194c.058-.047.058-.167.083-.254a.924.924,0,0,0-.323-.083,2.381,2.381,0,0,0-.656.16c-1.98.907-3.963,1.809-5.932,2.745a7.734,7.734,0,0,0-1.28.845,3.631,3.631,0,0,0-1.5,2.633.818.818,0,0,1-.736.845,6.883,6.883,0,0,1-1.987,0c-2.067-.406-2.049-.4-3.808.178a4.331,4.331,0,0,0-2.223,1.737,25.041,25.041,0,0,0-2.683,5.428,6.662,6.662,0,0,0-.537,3.583,63.874,63.874,0,0,0,2.314,6.473,11.735,11.735,0,0,0,2.183,2.542c.221.257.566.577.548.841a7.067,7.067,0,0,1-.236,2.614,13.552,13.552,0,0,1-1.853,3.216c-.936,1.128-1.07,2.009-.276,3.09a33.453,33.453,0,0,0,5.7,6.52,31.407,31.407,0,0,0,6.8,4.181c.25.116.591.29.8.21a8.327,8.327,0,0,1,3.332-.7c.674-.714,1.643-.054,2.339-.475.8-.486,1.628-.149,2.44-.239a15.84,15.84,0,0,1,1.809-.011,12.4,12.4,0,0,1,5.283,1.672,2.164,2.164,0,0,0,2.734.149,4.666,4.666,0,0,1,.932-.37,23.115,23.115,0,0,0,4.522-2.212c1.36-.812,2.448-2,3.72-2.879,1.313-.907,2-2.259,3.115-3.271a8.244,8.244,0,0,0,1.28-1.813,25.1,25.1,0,0,0,2.56-5.106,20.39,20.39,0,0,0,1.443-6.11,2.746,2.746,0,0,1,.3-1.7C248.375,179.732,248.523,178.7,247.327,178.876Zm-8.181,2.052c-.152.141-.054.58-.022.878.065.562-.243.823-.685,1.088a12.694,12.694,0,0,0-2.68,1.788,14.728,14.728,0,0,0-2.067,2.926,24.4,24.4,0,0,1-5.421,6.226c-1.675,1.4-2.593.754-3.249-1.229a6.739,6.739,0,0,1-.41-3.274,6.764,6.764,0,0,0-.344-2.386c-.127-.732.094-1.487-.348-2.219-.247-.406-.069-1.055-.279-1.5-.192-.413.141-1.023-.475-1.255-.25-1.066-1.11-1.4-2.016-1.614a16.985,16.985,0,0,1-5.073-1.762,5.589,5.589,0,0,1-1.809-1.621,2.145,2.145,0,0,1,.087-2.165,9.28,9.28,0,0,1,5.41-4.736c.791-.257,1.516-.058,2.433-.344a14.651,14.651,0,0,1,2.364.5c.439.163,1.023.185,1.273.914a2.439,2.439,0,0,0,1.458,1.142,20.8,20.8,0,0,0,4.587,1.131,1.987,1.987,0,0,1,1.8,1.117c.5.943,1.084,1.842,1.5,2.818a2.978,2.978,0,0,0,1.534,1.508q1.2.609,2.364,1.276C239.44,180.341,239.519,180.57,239.146,180.929Z" transform="translate(-196.27 -152.34)"/>
    </g>
    <g id="Group_2650" data-name="Group 2650" transform="translate(187.391 145.016)">
      <path id="Path_2112" data-name="Path 2112" d="M247.327,178.876c-.112.018-.265-.214-.4-.334-1.015-.9-2.027-1.8-3.057-2.683a6.558,6.558,0,0,0-1.262-.888c-.584-.3-.932-.018-.95.693-.007.243.011.486,0,.725-.044.78-.286,1.008-1.073,1.059a4.628,4.628,0,0,1-2.93-.841,13.38,13.38,0,0,1-3.245-3.557c-.954-1.229-1.748-2.589-3.206-3.361-1.49-.783-3.064-1.363-4.584-2.067-.736-.341-1.632-.062-2.252-.693-.7.355-1.392.714-2.092,1.07a4.249,4.249,0,0,1-.754.366c-.138.04-.461-.069-.461-.12-.025-.526-.2-1.2.051-1.548a4.319,4.319,0,0,1,2.125-1.8c1.084-.312,2.056-.878,3.119-1.229,1.309-.435,1.385-.551.986-1.8-.218-.682-.424-1.356.138-1.962a18.184,18.184,0,0,1,3.789-2.669,1.239,1.239,0,0,1,1.683.49c.214.388.366.816.544,1.222.457-.21.914-.413,1.367-.631a12.2,12.2,0,0,1,1.661-.794c.841-.25.12-.522,0-.6a31.407,31.407,0,0,0-5.842-2.948,27.005,27.005,0,0,0-3.565-1.019c-1.3-.279-2.625-.413-3.938-.613a.807.807,0,0,0-.015.083c-.424,0-.845-.007-1.269.011-.036,0-.069.16-.1.247.91.105.577.805.66,1.331a2.152,2.152,0,0,0,.381,1.091c.185.2.635.167.972.218a5.327,5.327,0,0,1,.54.011,1.951,1.951,0,0,1,.994,1.342c.025.783-.587.344-.907.471-.051.018-.08.094-.131.123a78.2,78.2,0,0,1-7.963,3.086,6.253,6.253,0,0,1-3.307.772c-.261-.047-.667.167-.725-.272a1.043,1.043,0,0,1,.185-.805c.878-.762,1.806-1.461,2.712-2.187s1.813-1.458,2.712-2.194c.058-.047.058-.167.083-.254a.924.924,0,0,0-.323-.083,2.381,2.381,0,0,0-.656.16c-1.98.907-3.963,1.809-5.932,2.745a7.734,7.734,0,0,0-1.28.845,3.631,3.631,0,0,0-1.5,2.633.818.818,0,0,1-.736.845,6.883,6.883,0,0,1-1.987,0c-2.067-.406-2.049-.4-3.808.178a4.331,4.331,0,0,0-2.223,1.737,25.041,25.041,0,0,0-2.683,5.428,6.662,6.662,0,0,0-.537,3.583,63.874,63.874,0,0,0,2.314,6.473,11.735,11.735,0,0,0,2.183,2.542c.221.257.566.577.548.841a7.067,7.067,0,0,1-.236,2.614,13.552,13.552,0,0,1-1.853,3.216c-.936,1.128-1.07,2.009-.276,3.09a33.453,33.453,0,0,0,5.7,6.52,31.407,31.407,0,0,0,6.8,4.181c.25.116.591.29.8.21a8.327,8.327,0,0,1,3.332-.7c.674-.714,1.643-.054,2.339-.475.8-.486,1.628-.149,2.44-.239a15.84,15.84,0,0,1,1.809-.011,12.4,12.4,0,0,1,5.283,1.672,2.164,2.164,0,0,0,2.734.149,4.666,4.666,0,0,1,.932-.37,23.115,23.115,0,0,0,4.522-2.212c1.36-.812,2.448-2,3.72-2.879,1.313-.907,2-2.259,3.115-3.271a8.244,8.244,0,0,0,1.28-1.813,25.1,25.1,0,0,0,2.56-5.106,20.39,20.39,0,0,0,1.443-6.11,2.746,2.746,0,0,1,.3-1.7C248.375,179.732,248.523,178.7,247.327,178.876Zm-8.181,2.052c-.152.141-.054.58-.022.878.065.562-.243.823-.685,1.088a12.694,12.694,0,0,0-2.68,1.788,14.728,14.728,0,0,0-2.067,2.926,24.4,24.4,0,0,1-5.421,6.226c-1.675,1.4-2.593.754-3.249-1.229a6.739,6.739,0,0,1-.41-3.274,6.764,6.764,0,0,0-.344-2.386c-.127-.732.094-1.487-.348-2.219-.247-.406-.069-1.055-.279-1.5-.192-.413.141-1.023-.475-1.255-.25-1.066-1.11-1.4-2.016-1.614a16.985,16.985,0,0,1-5.073-1.762,5.589,5.589,0,0,1-1.809-1.621,2.145,2.145,0,0,1,.087-2.165,9.28,9.28,0,0,1,5.41-4.736c.791-.257,1.516-.058,2.433-.344a14.651,14.651,0,0,1,2.364.5c.439.163,1.023.185,1.273.914a2.439,2.439,0,0,0,1.458,1.142,20.8,20.8,0,0,0,4.587,1.131,1.987,1.987,0,0,1,1.8,1.117c.5.943,1.084,1.842,1.5,2.818a2.978,2.978,0,0,0,1.534,1.508q1.2.609,2.364,1.276C239.44,180.341,239.519,180.57,239.146,180.929Z" transform="translate(-196.27 -152.34)" fill="#2b394a"/>
    </g>
    <g id="Group_2651" data-name="Group 2651" transform="translate(205.134 162.404)">
      <path id="Path_2113" data-name="Path 2113" d="M270.333,211.491c-.152.141-.054.58-.022.878.065.562-.243.823-.685,1.088a12.694,12.694,0,0,0-2.68,1.788,14.729,14.729,0,0,0-2.067,2.926,24.4,24.4,0,0,1-5.421,6.226c-1.675,1.4-2.593.754-3.249-1.229a6.739,6.739,0,0,1-.41-3.274,6.764,6.764,0,0,0-.344-2.386c-.127-.732.094-1.487-.348-2.219-.247-.406-.069-1.055-.279-1.5-.192-.413.141-1.023-.475-1.255-.25-1.066-1.11-1.4-2.016-1.614a16.985,16.985,0,0,1-5.073-1.762,5.589,5.589,0,0,1-1.809-1.621,2.145,2.145,0,0,1,.087-2.165,9.28,9.28,0,0,1,5.41-4.736c.791-.257,1.516-.058,2.433-.344a14.654,14.654,0,0,1,2.364.5c.439.163,1.023.185,1.273.914a2.439,2.439,0,0,0,1.458,1.142,20.8,20.8,0,0,0,4.587,1.131,1.987,1.987,0,0,1,1.8,1.117c.5.943,1.084,1.842,1.5,2.818a2.978,2.978,0,0,0,1.534,1.508q1.2.609,2.364,1.276C270.627,210.9,270.706,211.132,270.333,211.491Z" transform="translate(-245.2 -200.29)" fill="#16202c"/>
    </g>
    <g id="Group_2652" data-name="Group 2652" transform="translate(182.34 140.85)">
      <path id="Path_2114" data-name="Path 2114" d="M212.84,140.85a30.5,30.5,0,1,0,30.5,30.5A30.534,30.534,0,0,0,212.84,140.85Zm26.112,33.626a20.39,20.39,0,0,1-1.443,6.11,25.1,25.1,0,0,1-2.56,5.106,8.245,8.245,0,0,1-1.28,1.813c-1.117,1.012-1.8,2.364-3.115,3.271-1.273.881-2.361,2.067-3.72,2.879a23.114,23.114,0,0,1-4.522,2.212,4.665,4.665,0,0,0-.932.37,2.164,2.164,0,0,1-2.734-.149,12.4,12.4,0,0,0-5.283-1.672,15.844,15.844,0,0,0-1.809.011c-.812.091-1.639-.247-2.44.239-.7.421-1.664-.239-2.339.475a8.327,8.327,0,0,0-3.332.7c-.21.08-.551-.094-.8-.21a31.406,31.406,0,0,1-6.8-4.181,33.453,33.453,0,0,1-5.7-6.52c-.794-1.081-.66-1.962.276-3.09a13.551,13.551,0,0,0,1.853-3.216,7.067,7.067,0,0,0,.236-2.614c.018-.265-.326-.584-.548-.841a11.734,11.734,0,0,1-2.183-2.542,63.87,63.87,0,0,1-2.314-6.473,6.662,6.662,0,0,1,.537-3.583,25.041,25.041,0,0,1,2.683-5.428,4.331,4.331,0,0,1,2.223-1.737c1.759-.573,1.741-.584,3.807-.178a6.884,6.884,0,0,0,1.987,0,.818.818,0,0,0,.736-.845,3.631,3.631,0,0,1,1.5-2.633,7.734,7.734,0,0,1,1.28-.845c1.969-.936,3.953-1.838,5.932-2.745a2.382,2.382,0,0,1,.656-.16.924.924,0,0,1,.323.083c-.025.087-.025.207-.083.254q-1.349,1.1-2.712,2.194c-.907.725-1.835,1.425-2.712,2.187a1.043,1.043,0,0,0-.185.805c.058.439.464.225.725.272a6.253,6.253,0,0,0,3.307-.772,78.2,78.2,0,0,0,7.963-3.086c.051-.029.08-.105.131-.123.319-.127.932.312.907-.471a1.951,1.951,0,0,0-.994-1.342,5.335,5.335,0,0,0-.54-.011c-.337-.051-.787-.014-.972-.218a2.152,2.152,0,0,1-.381-1.091c-.083-.526.25-1.226-.66-1.331.033-.087.065-.243.1-.247.424-.018.845-.011,1.269-.011a.815.815,0,0,1,.014-.083c1.313.2,2.64.334,3.938.613a27,27,0,0,1,3.565,1.019,31.407,31.407,0,0,1,5.842,2.948c.12.076.841.348,0,.6a12.2,12.2,0,0,0-1.661.794c-.453.218-.91.421-1.367.631-.178-.406-.33-.834-.544-1.222a1.239,1.239,0,0,0-1.683-.49,18.184,18.184,0,0,0-3.789,2.669c-.562.606-.355,1.28-.138,1.962.4,1.251.323,1.367-.986,1.8-1.062.352-2.034.917-3.119,1.229a4.319,4.319,0,0,0-2.125,1.8c-.25.352-.076,1.023-.051,1.548,0,.051.323.16.461.12a4.249,4.249,0,0,0,.754-.366c.7-.355,1.4-.714,2.092-1.07.62.631,1.516.352,2.252.693,1.519.7,3.093,1.284,4.584,2.067,1.458.772,2.252,2.132,3.206,3.361a13.379,13.379,0,0,0,3.245,3.557,4.628,4.628,0,0,0,2.93.841c.787-.051,1.03-.279,1.073-1.059.015-.239,0-.482,0-.725.018-.711.366-.994.95-.693a6.558,6.558,0,0,1,1.262.888c1.03.881,2.042,1.788,3.057,2.683.134.12.286.352.4.334,1.2-.181,1.048.856.8,1.222A2.746,2.746,0,0,0,238.952,174.476Z" transform="translate(-182.34 -140.85)" fill="#16202c"/>
    </g>
  </g>
</svg>
