<svg xmlns="http://www.w3.org/2000/svg" width="86.044" height="86.044" viewBox="0 0 86.044 86.044">
  <g id="Group_2725" data-name="Group 2725" transform="translate(-201 -52)">
    <g id="Path_2046" data-name="Path 2046" transform="translate(201 52)" fill="none">
      <path d="M41.5,0A41.5,41.5,0,1,1,0,41.5,41.5,41.5,0,0,1,41.5,0Z" stroke="none"/>
      <path d="M 41.5 5 C 36.5703239440918 5 31.79076766967773 5.964370727539063 27.29409408569336 7.866294860839844 C 22.94829177856445 9.704414367675781 19.04430770874023 12.33689117431641 15.69059753417969 15.69059753417969 C 12.33689117431641 19.04430770874023 9.704414367675781 22.94829177856445 7.866294860839844 27.29409408569336 C 5.964370727539063 31.79076766967773 5 36.5703239440918 5 41.5 C 5 46.4296760559082 5.964370727539063 51.209228515625 7.866294860839844 55.70590972900391 C 9.704414367675781 60.05170822143555 12.33689117431641 63.95569229125977 15.69059753417969 67.30940246582031 C 19.04430770874023 70.66310882568359 22.94829177856445 73.29558563232422 27.29409408569336 75.13370513916016 C 31.79076766967773 77.03562927246094 36.5703239440918 78 41.5 78 C 46.4296760559082 78 51.209228515625 77.03562927246094 55.70590972900391 75.13370513916016 C 60.05170822143555 73.29558563232422 63.95569229125977 70.66310882568359 67.30940246582031 67.30940246582031 C 70.66310882568359 63.95569229125977 73.29558563232422 60.05170822143555 75.13370513916016 55.70590972900391 C 77.03562927246094 51.209228515625 78 46.4296760559082 78 41.5 C 78 36.5703239440918 77.03562927246094 31.79076766967773 75.13370513916016 27.29409408569336 C 73.29558563232422 22.94829177856445 70.66310882568359 19.04430770874023 67.30940246582031 15.69059753417969 C 63.95569229125977 12.33689117431641 60.05170822143555 9.704414367675781 55.70590972900391 7.866294860839844 C 51.209228515625 5.964370727539063 46.4296760559082 5 41.5 5 M 41.5 0 C 64.41981506347656 0 83 18.58018493652344 83 41.5 C 83 64.41981506347656 64.41981506347656 83 41.5 83 C 18.58018493652344 83 0 64.41981506347656 0 41.5 C 0 18.58018493652344 18.58018493652344 0 41.5 0 Z" stroke="none" fill="#fff"/>
    </g>
    <line id="Line_65" data-name="Line 65" x2="13.776" y2="13.776" transform="translate(271.5 122.5)" fill="none" stroke="#fff" stroke-width="5"/>
  </g>
</svg>
