<svg xmlns="http://www.w3.org/2000/svg" width="62.766" height="62.759" viewBox="0 0 62.766 62.759">
  <path id="Path_1757" data-name="Path 1757" d="M398.767,244.213q-14.1,11.611-28.185,23.237c-3.087,2.543-4.135,2.473-7.02-.411q-5.262-5.258-10.517-10.521c-2.837-2.855-2.275-5.336,1.534-6.721q26.887-9.778,53.78-19.536c.341-.124.685-.245,1.025-.372a3.388,3.388,0,0,1,4.391,4.379c-1.51,4.175-3.006,8.356-4.523,12.529q-7.609,20.935-15.229,41.866c-.075.2-.161.406-.238.61-1.342,3.528-3.823,4.109-6.48,1.5-1.872-1.841-3.715-3.71-5.572-5.567q-2.552-2.552-5.1-5.105c-2.892-2.895-2.963-3.924-.416-7.015q9.737-11.816,19.485-23.624c1.706-2.075,5.89-7.407,5.89-7.407S399.321,243.757,398.767,244.213Z" transform="translate(-351.258 -229.632)" fill="#5eb8f3"/>
</svg>
