<svg xmlns="http://www.w3.org/2000/svg" width="74.395" height="74.395" viewBox="0 0 74.395 74.395">
  <path id="Path_2086" data-name="Path 2086" d="M1107.443,90.758c-.451,1.219-.775,2.343-1.279,3.379a1.592,1.592,0,0,0,.57,2.238c.948.781,1.714,1.778,2.637,2.593a1.552,1.552,0,0,0,1.244.291c1.08-.3,2.119-.757,3.173-1.152a1.373,1.373,0,0,1,1.868.7c1.034,1.8,2.061,3.614,3.147,5.387a1.577,1.577,0,0,1-.427,2.377c-.809.626-1.546,1.346-2.372,1.945a1.065,1.065,0,0,0-.4,1.426c.424,1.3.78,2.632,1.077,3.97a1.119,1.119,0,0,0,1.126,1.009c.98.1,1.957.256,2.929.426a1.574,1.574,0,0,1,1.519,1.7c-.012,2.151.038,4.3.036,6.453a1.315,1.315,0,0,1-1.237,1.447c-1.113.17-2.215.408-3.327.585a1.119,1.119,0,0,0-1.09,1.035c-.268,1.375-.74,2.71-1.041,4.081a1.406,1.406,0,0,0,.3,1.13c.809.782,1.709,1.473,2.586,2.184a1.407,1.407,0,0,1,.4,2.033c-1.012,1.735-1.968,3.5-2.989,5.234-.763,1.3-1.087,1.388-2.484.906a21.24,21.24,0,0,1-2.479-.9,1.331,1.331,0,0,0-1.87.418,32.478,32.478,0,0,1-2.69,2.689,1.042,1.042,0,0,0-.347,1.427c.47,1.018.734,2.128,1.154,3.172a1.268,1.268,0,0,1-.556,1.728c-2,1.187-4.025,2.331-6.055,3.466-.679.379-1.224.042-1.667-.482-.752-.889-1.457-1.82-2.253-2.667a1.291,1.291,0,0,0-1.041-.311c-1.437.323-2.866.7-4.27,1.146a1.446,1.446,0,0,0-.849.844c-.261,1.019-.371,2.076-.55,3.117-.23,1.34-.659,1.65-2,1.621-1.974-.042-3.95-.006-5.924-.054-1.217-.03-1.608-.42-1.8-1.627-.155-.974-.216-1.971-.46-2.921a1.568,1.568,0,0,0-.887-.944c-1.4-.458-2.836-.828-4.276-1.153a1.28,1.28,0,0,0-1.032.3c-.824.869-1.571,1.811-2.338,2.733a1.316,1.316,0,0,1-1.874.317c-1.919-1.117-3.847-2.22-5.763-3.343a1.343,1.343,0,0,1-.582-1.825c.387-1.02.729-2.059,1.159-3.06a1.054,1.054,0,0,0-.284-1.385c-1.057-.985-2.028-2.063-3.1-3.033a1.429,1.429,0,0,0-1.159-.284c-1.111.327-2.182.79-3.271,1.192a1.332,1.332,0,0,1-1.791-.659c-1.075-1.862-2.142-3.729-3.246-5.574a1.439,1.439,0,0,1,.377-2.121c.881-.706,1.77-1.41,2.576-2.2a1.4,1.4,0,0,0,.306-1.123c-.309-1.407-.756-2.783-1.074-4.188a1.073,1.073,0,0,0-1.057-.955c-.979-.118-1.954-.278-2.929-.428a1.59,1.59,0,0,1-1.577-1.748c.018-2.151-.038-4.3-.036-6.454a1.292,1.292,0,0,1,1.178-1.393c1.144-.2,2.284-.415,3.43-.6a1.074,1.074,0,0,0,1.035-.968c.291-1.407.754-2.779,1.071-4.182a1.291,1.291,0,0,0-.275-1.045c-.815-.777-1.7-1.479-2.585-2.185a1.448,1.448,0,0,1-.425-2.115c1.056-1.792,2.068-3.608,3.1-5.414a1.54,1.54,0,0,1,2.206-.761,26.02,26.02,0,0,0,3.078,1.1,1.281,1.281,0,0,0,1.047-.231c1.113-1.028,2.188-2.1,3.214-3.214a1.294,1.294,0,0,0,.211-1.06,33.711,33.711,0,0,0-1.158-3.283,1.313,1.313,0,0,1,.589-1.809c1.971-1.166,3.965-2.3,5.963-3.415.724-.406,1.279-.052,1.748.512.745.895,1.458,1.82,2.258,2.661a1.3,1.3,0,0,0,1.051.246c1.4-.317,2.778-.763,4.183-1.067a1.019,1.019,0,0,0,.928-.949c.186-1.146.415-2.285.594-3.432a1.329,1.329,0,0,1,1.438-1.255c2.151,0,4.3.051,6.454.037,1.117-.007,1.58.6,1.727,1.6.144.976.311,1.95.429,2.93a1.075,1.075,0,0,0,.975,1.039c1.371.311,2.737.664,4.072,1.1a1.017,1.017,0,0,0,1.332-.4c.711-.92,1.493-1.786,2.243-2.677a1.275,1.275,0,0,1,1.791-.3c1.953,1.129,5.843,3.414,5.843,3.414S1107.182,90.42,1107.443,90.758Zm-22.166,57.374a27.907,27.907,0,1,0-28.072-28.357A27.855,27.855,0,0,0,1085.277,148.133Z" transform="translate(-1047.893 -83.009)" fill="#fff"/>
</svg>
