<svg id="Group_2710" data-name="Group 2710" xmlns="http://www.w3.org/2000/svg" width="71.016" height="66.487" viewBox="0 0 71.016 66.487">
  <g id="Group_1709" data-name="Group 1709">
    <path id="Path_1735" data-name="Path 1735" d="M43.839,60.23,63.7,40.371H30.624a6.551,6.551,0,0,0-6.545,6.545V79.59a6.552,6.552,0,0,0,6.545,6.545H66.961a6.554,6.554,0,0,0,6.545-6.545V51.909L54.513,70.9Z" transform="translate(-18.418 -25.31)" fill="#5eb8f3"/>
    <path id="Path_1736" data-name="Path 1736" d="M53.518,70.968c-.053.109-10.321-10.333-10.472-10.45L69.09,34.371c.134.057-1.719,0-2.468,0H30.284A12.218,12.218,0,0,0,18.079,46.576V79.251A12.219,12.219,0,0,0,30.284,91.457H66.622A12.22,12.22,0,0,0,78.828,79.251V46.576c0-.214-.022-.423-.032-.634Z" transform="translate(-18.079 -24.97)" fill="#5eb8f3"/>
    <g id="Group_1619" data-name="Group 1619" transform="translate(47.393)">
      <path id="Path_1737" data-name="Path 1737" d="M91.936,48.035H86.275V30.067H68.313V24.406H91.936Z" transform="translate(-68.313 -24.406)" fill="#5eb8f3"/>
    </g>
    <g id="Group_1620" data-name="Group 1620" transform="translate(32.092 0.829)">
      <rect id="Rectangle_741" data-name="Rectangle 741" width="48.212" height="5.66" transform="translate(0 34.091) rotate(-45)" fill="#5eb8f3"/>
    </g>
  </g>
</svg>
