<svg xmlns="http://www.w3.org/2000/svg" xmlns:xlink="http://www.w3.org/1999/xlink" width="144" height="144" viewBox="0 0 144 144">
  <defs>
    <clipPath id="clip-path">
      <rect id="Rectangle_274" data-name="Rectangle 274" width="114.764" height="114.763" fill="none"/>
    </clipPath>
  </defs>
  <g id="Group_2569" data-name="Group 2569" transform="translate(4416 3207)">
    <g id="Group_2217" data-name="Group 2217" transform="translate(-4522 -4274)">
      <circle id="Ellipse_102" data-name="Ellipse 102" cx="72" cy="72" r="72" transform="translate(106 1067)" fill="#e5e8ee"/>
    </g>
    <g id="Group_2276" data-name="Group 2276" transform="translate(-4524 -3639)">
      <g id="Group_1016" data-name="Group 1016" transform="translate(123 447)">
        <path id="Path_1601" data-name="Path 1601" d="M57.382,0A57.382,57.382,0,1,1,0,57.382,57.382,57.382,0,0,1,57.382,0Z" transform="translate(0 0)" fill="#3a3a3a"/>
      </g>
      <g id="Group_1019" data-name="Group 1019" transform="translate(145 469)">
        <path id="Path_176" data-name="Path 176" d="M1233.081,559.993q-6.6,0-13.194,0a22.562,22.562,0,0,1-22.852-22.813q-.012-13.353,0-26.708a22.492,22.492,0,0,1,18.942-22.247,23.271,23.271,0,0,1,3.668-.312q13.433-.039,26.868-.011a22.569,22.569,0,0,1,22.61,22.57q.023,13.515,0,27.029a22.515,22.515,0,0,1-18.861,22.16,25.155,25.155,0,0,1-3.828.318C1241.983,560.015,1237.532,559.993,1233.081,559.993Zm29.3-36.048c0-4.344.01-8.687,0-13.029-.025-9.366-6.878-16.245-16.225-16.264q-13.11-.025-26.22,0a15.792,15.792,0,0,0-16.142,16.182q-.03,13.11,0,26.221a15.791,15.791,0,0,0,16.142,16.182q13.192.032,26.381,0a15.794,15.794,0,0,0,16.063-16.1C1262.392,532.738,1262.378,528.341,1262.378,523.944Z" transform="translate(-1197.027 -487.891)" fill="#fff"/>
        <path id="Path_177" data-name="Path 177" d="M1230.312,539.185a18.02,18.02,0,1,1,18.009-17.991A18.075,18.075,0,0,1,1230.312,539.185Zm.013-6.759a11.261,11.261,0,1,0-11.285-11.277A11.438,11.438,0,0,0,1230.325,532.427Z" transform="translate(-1194.248 -485.111)" fill="#fff"/>
        <path id="Path_178" data-name="Path 178" d="M1244.313,499.947a2.529,2.529,0,0,1,2.381,2.53,2.384,2.384,0,0,1-2.444,2.244,2.272,2.272,0,0,1-2.323-2.467A2.392,2.392,0,0,1,1244.313,499.947Z" transform="translate(-1192.845 -484.694)" fill="#fff"/>
      </g>
    </g>
  </g>
</svg>
