<svg xmlns="http://www.w3.org/2000/svg" width="144" height="144" viewBox="0 0 144 144">
  <g id="Group_2753" data-name="Group 2753" transform="translate(-1332 -91)">
    <g id="Group_2751" data-name="Group 2751" transform="translate(1237 -1264)">
      <g id="Group_2240" data-name="Group 2240" transform="translate(-11)">
        <g id="Group_1769" data-name="Group 1769" transform="translate(65 1341.403)">
          <circle id="Ellipse_102" data-name="Ellipse 102" cx="72" cy="72" r="72" transform="translate(41 13.597)" fill="#2b394a"/>
        </g>
      </g>
    </g>
    <g id="Group_2752" data-name="Group 2752" transform="translate(1287.414 -283.891)">
      <path id="Path_2154" data-name="Path 2154" d="M71.977,491.808c.823-2.454,1.607-4.8,2.395-7.137q2.62-7.785,5.253-15.565a1.593,1.593,0,0,0-.158-1.459,42.76,42.76,0,0,1-5.922-22.669,43.827,43.827,0,1,1,53.122,43.546,42.71,42.71,0,0,1-29.836-4.111,1.544,1.544,0,0,0-1.317-.113q-11.573,3.734-23.156,7.436C72.286,491.759,72.208,491.766,71.977,491.808ZM83.339,480.6c.354-.1.551-.152.745-.214,4.173-1.33,8.35-2.65,12.515-4.007a1.456,1.456,0,0,1,1.371.178,35.364,35.364,0,0,0,27.276,4.732,36.454,36.454,0,0,0-13.914-71.545,35.1,35.1,0,0,0-25.1,17.189,35.762,35.762,0,0,0-4.982,23.919A34.964,34.964,0,0,0,87.462,466.5a1.221,1.221,0,0,1,.2,1.291c-.334.849-.6,1.725-.887,2.59C85.643,473.739,84.516,477.1,83.339,480.6Z" transform="translate(0 0)" fill="#fff"/>
      <path id="Path_2155" data-name="Path 2155" d="M92.172,487.876c1.176-3.5,2.3-6.863,3.431-10.221.29-.866.553-1.742.887-2.59a1.221,1.221,0,0,0-.2-1.291,34.964,34.964,0,0,1-6.214-15.644,35.763,35.763,0,0,1,4.982-23.919,35.1,35.1,0,0,1,25.1-17.189,36.454,36.454,0,0,1,13.914,71.545,35.364,35.364,0,0,1-27.276-4.732,1.456,1.456,0,0,0-1.371-.178c-4.165,1.356-8.341,2.676-12.515,4.007C92.723,487.724,92.526,487.774,92.172,487.876Zm12.147-45.3a16.167,16.167,0,0,0,1.48,6.341,51.892,51.892,0,0,0,7.013,10.92c6.044,7.719,14.029,12.446,23.335,15.12a7.573,7.573,0,0,0,5.726-.4,18.107,18.107,0,0,0,5.292-4.127,7.351,7.351,0,0,0,1.924-4.847,1.97,1.97,0,0,0-1.176-2.02c-.729-.348-1.42-.777-2.137-1.15-2.2-1.145-4.383-2.321-6.612-3.407-1.273-.619-1.708-.409-2.619.682-1.14,1.363-2.321,2.7-3.518,4.01a1.5,1.5,0,0,1-2.107.386,30.326,30.326,0,0,1-14.879-13.706c-.647-1.189-.534-1.567.361-2.56,1.009-1.12,1.938-2.315,2.85-3.517a2.047,2.047,0,0,0,.151-2.093c-.384-.97-.746-1.949-1.111-2.926-.785-2.1-1.523-4.222-2.38-6.293a2.546,2.546,0,0,0-1.252-1.367,6.109,6.109,0,0,0-6.019,1.193C105.539,435.255,104.389,438.582,104.319,442.579Z" transform="translate(-8.833 -7.274)" fill="#2b394a"/>
      <path id="Path_2156" data-name="Path 2156" d="M118.771,457.209c.069-4,1.22-7.324,4.323-9.763a6.109,6.109,0,0,1,6.019-1.193,2.546,2.546,0,0,1,1.252,1.367c.857,2.071,1.595,4.192,2.38,6.293.365.977.727,1.956,1.111,2.926a2.047,2.047,0,0,1-.151,2.093c-.912,1.2-1.841,2.4-2.85,3.517-.9.994-1.008,1.371-.361,2.56a30.326,30.326,0,0,0,14.879,13.706,1.5,1.5,0,0,0,2.107-.386c1.2-1.314,2.378-2.646,3.518-4.01.911-1.09,1.346-1.3,2.619-.682,2.228,1.086,4.413,2.261,6.612,3.407.717.373,1.408.8,2.137,1.15a1.97,1.97,0,0,1,1.176,2.02,7.351,7.351,0,0,1-1.924,4.847,18.109,18.109,0,0,1-5.292,4.127,7.574,7.574,0,0,1-5.726.4c-9.307-2.675-17.291-7.4-23.335-15.12a51.889,51.889,0,0,1-7.013-10.92A16.168,16.168,0,0,1,118.771,457.209Z" transform="translate(-23.284 -21.904)" fill="#fff"/>
    </g>
  </g>
</svg>
