<svg xmlns="http://www.w3.org/2000/svg" xmlns:xlink="http://www.w3.org/1999/xlink" width="144" height="144" viewBox="0 0 144 144">
  <defs>
    <clipPath id="clip-path">
      <rect id="Rectangle_278" data-name="Rectangle 278" width="114.764" height="114.763" fill="none"/>
    </clipPath>
  </defs>
  <g id="Group_2571" data-name="Group 2571" transform="translate(4413 2866)">
    <g id="Group_2217" data-name="Group 2217" transform="translate(-4519 -3933)">
      <circle id="Ellipse_102" data-name="Ellipse 102" cx="72" cy="72" r="72" transform="translate(106 1067)" fill="#e5e8ee"/>
    </g>
    <g id="Group_570" data-name="Group 570" transform="translate(-4398 -2851)">
      <g id="Group_443" data-name="Group 443" transform="translate(0)">
        <path id="Path_1600" data-name="Path 1600" d="M57.382,0A57.382,57.382,0,1,1,0,57.382,57.382,57.382,0,0,1,57.382,0Z" transform="translate(0)" fill="#3a3a3a"/>
        <g id="Group_447" data-name="Group 447" transform="translate(0)">
          <g id="Group_446" data-name="Group 446" clip-path="url(#clip-path)">
            <path id="Path_165" data-name="Path 165" d="M1720.908-6084.092v-38.389h-12.757v38.389Zm-6.38-43.628c4.448,0,7.22-2.952,7.22-6.635-.083-3.766-2.772-6.631-7.137-6.631s-7.216,2.865-7.216,6.631c0,3.688,2.769,6.635,7.054,6.635Zm52.393,43.628v-22.01c0-11.792-6.294-17.28-14.689-17.28a12.654,12.654,0,0,0-11.5,6.341v-5.44h-12.76c.169,3.6,0,38.389,0,38.389h12.76v-21.439a8.738,8.738,0,0,1,.42-3.111,6.982,6.982,0,0,1,6.545-4.665c4.619,0,6.466,3.519,6.466,8.679v20.54Z" transform="translate(-1679.793 6166.371)" fill="#fff"/>
          </g>
        </g>
      </g>
    </g>
  </g>
</svg>
