<svg xmlns="http://www.w3.org/2000/svg" width="54.427" height="68.436" viewBox="0 0 54.427 68.436">
  <g id="Group_2505" data-name="Group 2505" transform="translate(-552.116 -485.93)">
    <g id="Group_56" data-name="Group 56" transform="translate(553.116 486.93)">
      <path id="Path_1" data-name="Path 1" d="M598.11,553.366H560.549a7.441,7.441,0,0,1-7.433-7.43V494.363a7.442,7.442,0,0,1,7.433-7.433H598.11a7.442,7.442,0,0,1,7.433,7.433v51.573A7.442,7.442,0,0,1,598.11,553.366Zm-37.561-63.632a4.633,4.633,0,0,0-4.628,4.629v51.573a4.629,4.629,0,0,0,4.628,4.625H598.11a4.629,4.629,0,0,0,4.629-4.625V494.363a4.633,4.633,0,0,0-4.629-4.629Z" transform="translate(-553.116 -486.93)" fill="#fff" stroke="#fff" stroke-width="2"/>
    </g>
    <g id="Group_57" data-name="Group 57" transform="translate(560.918 498.593)">
      <path id="Path_2" data-name="Path 2" d="M564.418,501.65h-6.839a2.388,2.388,0,0,1-2.387-2.387v-6.843a2.388,2.388,0,0,1,2.387-2.387h6.839a2.391,2.391,0,0,1,2.387,2.387v6.843A2.391,2.391,0,0,1,564.418,501.65Zm-6.839-10.565a1.337,1.337,0,0,0-1.335,1.335v6.843a1.337,1.337,0,0,0,1.335,1.335h6.839a1.338,1.338,0,0,0,1.335-1.335v-6.843a1.337,1.337,0,0,0-1.335-1.335Z" transform="translate(-555.191 -490.032)" fill="#fff" stroke="#fff" stroke-width="2"/>
    </g>
    <g id="Group_58" data-name="Group 58" transform="translate(560.918 515.573)">
      <path id="Path_3" data-name="Path 3" d="M564.418,506.162h-6.839a2.386,2.386,0,0,1-2.387-2.388v-6.839a2.389,2.389,0,0,1,2.387-2.388h6.839a2.391,2.391,0,0,1,2.387,2.388v6.839A2.388,2.388,0,0,1,564.418,506.162ZM557.578,495.6a1.335,1.335,0,0,0-1.335,1.335v6.839a1.335,1.335,0,0,0,1.335,1.335h6.839a1.335,1.335,0,0,0,1.335-1.335v-6.839a1.335,1.335,0,0,0-1.335-1.335Z" transform="translate(-555.191 -494.548)" fill="#fff" stroke="#fff" stroke-width="2"/>
    </g>
    <g id="Group_59" data-name="Group 59" transform="translate(560.918 532.548)">
      <path id="Path_4" data-name="Path 4" d="M564.418,510.681h-6.839a2.388,2.388,0,0,1-2.387-2.388v-6.839a2.389,2.389,0,0,1,2.387-2.391h6.839a2.392,2.392,0,0,1,2.387,2.391v6.839A2.391,2.391,0,0,1,564.418,510.681Zm-6.839-10.561a1.335,1.335,0,0,0-1.335,1.335v6.839a1.335,1.335,0,0,0,1.335,1.335h6.839a1.335,1.335,0,0,0,1.335-1.335v-6.839a1.335,1.335,0,0,0-1.335-1.335Z" transform="translate(-555.191 -499.063)" fill="#fff" stroke="#fff" stroke-width="2"/>
    </g>
    <g id="Group_60" data-name="Group 60" transform="translate(577.404 502.996)">
      <rect id="Rectangle_154" data-name="Rectangle 154" width="19.018" height="1.885" fill="#fff" stroke="#fff" stroke-miterlimit="10" stroke-width="2"/>
    </g>
    <g id="Group_61" data-name="Group 61" transform="translate(577.404 520.438)">
      <rect id="Rectangle_155" data-name="Rectangle 155" width="19.018" height="1.885" fill="#fff" stroke="#fff" stroke-miterlimit="10" stroke-width="2"/>
    </g>
    <g id="Group_62" data-name="Group 62" transform="translate(577.404 536.949)">
      <rect id="Rectangle_156" data-name="Rectangle 156" width="19.018" height="1.885" fill="#fff" stroke="#fff" stroke-miterlimit="10" stroke-width="2"/>
    </g>
  </g>
</svg>
