<svg xmlns="http://www.w3.org/2000/svg" xmlns:xlink="http://www.w3.org/1999/xlink" width="143" height="144" viewBox="0 0 143 144">
  <defs>
    <clipPath id="clip-path">
      <rect id="Rectangle_280" data-name="Rectangle 280" width="95.354" height="95.354" fill="#111" stroke="#666" stroke-width="1"/>
    </clipPath>
  </defs>
  <g id="Group_2224" data-name="Group 2224" transform="translate(-827 -1067)">
    <g id="Group_2218" data-name="Group 2218">
      <ellipse id="Ellipse_100" data-name="Ellipse 100" cx="71.5" cy="72" rx="71.5" ry="72" transform="translate(827 1067)" fill="#2b394a"/>
      <g id="Group_2216" data-name="Group 2216" transform="translate(784.815 1052.938)">
        <path id="Path_205" data-name="Path 205" d="M47.66,0A47.66,47.66,0,1,1,0,47.66,47.66,47.66,0,0,1,47.66,0Z" transform="translate(65.185 38.078)" fill="none" stroke="#e5e8ee" stroke-width="5"/>
        <g id="Group_724" data-name="Group 724" transform="translate(65.831 38.061)">
          <g id="Group_451" data-name="Group 451" transform="translate(0.186 0)">
            <g id="Group_450" data-name="Group 450" clip-path="url(#clip-path)">
              <path id="Path_167" data-name="Path 167" d="M1731.073-6667.083l1.3,6.662c.331,1.7.664,3.5.933,5.364h.066c.334-1.865.8-3.73,1.2-5.33l1.734-6.7h4l1.63,6.5c.435,1.833.867,3.665,1.2,5.53h.066c.233-1.865.566-3.7.933-5.562l1.4-6.463h4.965l-5,16.29h-4.762l-1.535-5.733c-.4-1.6-.7-3.066-1.031-5.063h-.065a38.072,38.072,0,0,1-1.067,5.063l-1.633,5.73h-4.762l-4.732-16.291h5.164Z" transform="translate(-1716.457 6706.617)" fill="#111" stroke="#666" stroke-width="1"/>
            </g>
          </g>
          <g id="Group_452" data-name="Group 452" transform="translate(0.186 0)" clip-path="url(#clip-path)">
            <path id="Path_168" data-name="Path 168" d="M1849.131-6667.074l1.3,6.663c.331,1.7.664,3.5.933,5.364h.066c.334-1.866.8-3.731,1.2-5.332l1.734-6.694h4l1.63,6.495c.435,1.834.867,3.666,1.2,5.532h.066c.232-1.866.566-3.7.933-5.563l1.4-6.463h4.964l-5,16.291h-4.762l-1.531-5.73c-.4-1.6-.7-3.066-1.031-5.063h-.068a37.934,37.934,0,0,1-1.067,5.063l-1.633,5.73H1848.7l-4.732-16.291Z" transform="translate(-1808.582 6706.607)" fill="#e5e8ee" stroke="#e5e8ee" stroke-width="1"/>
          </g>
          <g id="Group_454" data-name="Group 454" transform="translate(0.186 0)" clip-path="url(#clip-path)">
            <path id="Path_169" data-name="Path 169" d="M1967.176-6667.074l1.3,6.663c.33,1.7.664,3.5.933,5.364h.065c.333-1.866.8-3.731,1.2-5.332l1.734-6.694h4l1.63,6.495c.435,1.834.867,3.666,1.2,5.532h.066c.232-1.866.566-3.7.933-5.563l1.4-6.463h4.964l-5,16.291h-4.762l-1.531-5.73c-.4-1.6-.7-3.066-1.031-5.063h-.068a37.89,37.89,0,0,1-1.067,5.063l-1.632,5.73h-4.762l-4.732-16.291Z" transform="translate(-1900.696 6706.607)" fill="#e5e8ee" stroke="#e5e8ee" stroke-width="1"/>
          </g>
          <g id="Group_456" data-name="Group 456" transform="translate(0 0)" clip-path="url(#clip-path)">
            <path id="Path_170" data-name="Path 170" d="M1730.226-6667.083l1.3,6.662c.331,1.7.665,3.5.933,5.364h.066c.334-1.865.8-3.73,1.2-5.33l1.734-6.7h4l1.63,6.5c.435,1.833.867,3.665,1.2,5.53h.066c.233-1.865.566-3.7.933-5.562l1.4-6.463h4.964l-5,16.29h-4.762l-1.535-5.733c-.4-1.6-.7-3.066-1.031-5.063h-.066a37.9,37.9,0,0,1-1.067,5.063l-1.633,5.73h-4.762l-4.732-16.291h5.164Z" transform="translate(-1715.61 6706.617)" fill="#e5e8ee" stroke="#e5e8ee" stroke-width="1"/>
          </g>
        </g>
      </g>
    </g>
  </g>
</svg>
